<svg width="252" height="209" viewBox="0 0 252 209" fill="none" xmlns="http://www.w3.org/2000/svg">
<g id="LaunchScreenLogo">
<path id="Name" d="M10.8516 198.375C9.21094 198.375 8.22656 197.344 8.22656 195.656V166.523C8.22656 164.836 9.21094 163.805 10.8516 163.805C12.4688 163.805 13.4766 164.836 13.4766 166.523V178.477H30.8438V166.523C30.8438 164.836 31.8281 163.805 33.4688 163.805C35.0859 163.805 36.0938 164.836 36.0938 166.523V195.656C36.0938 197.344 35.0859 198.375 33.4688 198.375C31.8281 198.375 30.8438 197.344 30.8438 195.656V183.023H13.4766V195.656C13.4766 197.344 12.4688 198.375 10.8516 198.375ZM52.3828 198.469C44.9531 198.469 40.5938 193.758 40.5938 185.789C40.5938 177.961 45.0469 172.898 52.0312 172.898C58.5938 172.898 63.1172 177.633 63.1172 184.359C63.1172 186 62.1797 186.938 60.6094 186.938H45.7031V187.055C45.7031 191.555 48.2344 194.367 52.2656 194.367C55.0312 194.367 56.7656 193.406 58.6406 190.852C59.1797 190.219 59.6953 189.961 60.4219 189.961C61.6406 189.961 62.5312 190.758 62.5312 192.023C62.5312 192.422 62.3906 192.891 62.1797 193.383C60.5625 196.617 56.9766 198.469 52.3828 198.469ZM45.7266 183.398H58.0547C57.9375 179.531 55.5234 176.977 52.0078 176.977C48.5156 176.977 45.9844 179.555 45.7266 183.398ZM74.2734 198.422C69.4453 198.422 66.0469 195.422 66.0469 190.992C66.0469 186.68 69.375 184.031 75.2109 183.703L81.9844 183.305V181.406C81.9844 178.664 80.1328 177.023 77.0391 177.023C74.6016 177.023 72.9844 177.891 71.5781 180.141C71.0625 180.891 70.4062 181.219 69.5156 181.219C68.25 181.219 67.3359 180.375 67.3359 179.109C67.3359 178.594 67.4766 178.031 67.7812 177.469C69.0703 174.68 72.7969 172.898 77.2266 172.898C83.2031 172.898 87.0234 176.062 87.0234 181.008V195.891C87.0234 197.484 86.0156 198.445 84.5859 198.445C83.1797 198.445 82.2188 197.531 82.1719 196.031V193.945H82.0547C80.625 196.688 77.4844 198.422 74.2734 198.422ZM75.6562 194.414C79.1953 194.414 81.9844 191.977 81.9844 188.766V186.82L75.8906 187.195C72.8672 187.406 71.1562 188.742 71.1562 190.852C71.1562 193.008 72.9609 194.414 75.6562 194.414ZM94.6641 198.445C93.1875 198.445 92.1328 197.438 92.1328 195.773V166.406C92.1328 164.742 93.1875 163.734 94.6641 163.734C96.1406 163.734 97.1953 164.742 97.1953 166.406V195.773C97.1953 197.438 96.1406 198.445 94.6641 198.445ZM103.875 192.094V177.352H102.094C100.781 177.352 99.9844 176.602 99.9844 175.359C99.9844 174.094 100.781 173.344 102.094 173.344H103.875V169.688C103.875 168.07 104.883 166.992 106.43 166.992C107.953 166.992 108.961 168.07 108.961 169.688V173.344H111.844C113.156 173.344 113.953 174.117 113.953 175.359C113.953 176.602 113.156 177.352 111.844 177.352H108.961V190.969C108.961 192.938 109.641 193.828 111.469 193.969L111.867 193.992C113.32 194.133 114.047 194.719 114.047 195.914C114.047 197.438 112.875 198.211 110.391 198.211H110.133C105.984 198.211 103.875 196.172 103.875 192.094ZM120.539 198.445C119.062 198.445 118.008 197.438 118.008 195.773V166.359C118.008 164.766 118.969 163.734 120.516 163.734C122.086 163.734 123.023 164.766 123.023 166.359V177.469H123.141C124.5 174.586 127.195 172.922 130.945 172.922C136.359 172.922 139.594 176.531 139.594 182.109V195.773C139.594 197.438 138.539 198.445 137.039 198.445C135.562 198.445 134.508 197.438 134.508 195.773V183.094C134.508 179.461 132.68 177.281 129.117 177.281C125.367 177.281 123.07 179.859 123.07 183.75V195.773C123.07 197.438 122.016 198.445 120.539 198.445ZM147.727 198C146.086 198 145.102 196.969 145.102 195.281V166.898C145.102 165.211 146.086 164.18 147.727 164.18H158.602C164.602 164.18 168.539 167.508 168.539 172.617C168.539 176.203 165.891 179.414 162.516 179.977V180.164C167.109 180.68 170.203 183.938 170.203 188.438C170.203 194.391 165.867 198 158.672 198H147.727ZM150.352 178.57H156.234C160.781 178.57 163.289 176.695 163.289 173.344C163.289 170.203 161.133 168.469 157.336 168.469H150.352V178.57ZM150.352 193.711H157.594C162.328 193.711 164.836 191.766 164.836 188.109C164.836 184.453 162.258 182.578 157.289 182.578H150.352V193.711ZM181.336 198.422C176.508 198.422 173.109 195.422 173.109 190.992C173.109 186.68 176.438 184.031 182.273 183.703L189.047 183.305V181.406C189.047 178.664 187.195 177.023 184.102 177.023C181.664 177.023 180.047 177.891 178.641 180.141C178.125 180.891 177.469 181.219 176.578 181.219C175.312 181.219 174.398 180.375 174.398 179.109C174.398 178.594 174.539 178.031 174.844 177.469C176.133 174.68 179.859 172.898 184.289 172.898C190.266 172.898 194.086 176.062 194.086 181.008V195.891C194.086 197.484 193.078 198.445 191.648 198.445C190.242 198.445 189.281 197.531 189.234 196.031V193.945H189.117C187.688 196.688 184.547 198.422 181.336 198.422ZM182.719 194.414C186.258 194.414 189.047 191.977 189.047 188.766V186.82L182.953 187.195C179.93 187.406 178.219 188.742 178.219 190.852C178.219 193.008 180.023 194.414 182.719 194.414ZM201.539 198.445C200.039 198.445 199.008 197.438 199.008 195.773V175.453C199.008 173.906 199.945 172.898 201.422 172.898C202.875 172.898 203.883 173.906 203.883 175.477V177.422H204C205.336 174.609 207.914 172.922 211.711 172.922C217.148 172.922 220.266 176.391 220.266 182.039V195.773C220.266 197.438 219.211 198.445 217.711 198.445C216.234 198.445 215.18 197.438 215.18 195.773V183.023C215.18 179.32 213.445 177.281 209.93 177.281C206.367 177.281 204.07 179.812 204.07 183.633V195.773C204.07 197.438 203.016 198.445 201.539 198.445ZM227.883 198.445C226.406 198.445 225.352 197.438 225.352 195.773V166.406C225.352 164.742 226.406 163.734 227.883 163.734C229.359 163.734 230.414 164.742 230.414 166.406V183.867H230.461L240.703 173.836C241.336 173.156 241.875 172.898 242.625 172.898C243.867 172.898 244.828 173.859 244.828 175.055C244.828 175.781 244.617 176.25 243.961 176.859L236.344 184.078L244.711 194.438C245.25 195.117 245.391 195.586 245.391 196.219C245.391 197.508 244.383 198.445 243.023 198.445C242.086 198.445 241.523 198.141 240.844 197.203L232.664 187.078L230.414 189.188V195.773C230.414 197.438 229.359 198.445 227.883 198.445Z" fill="white"/>
<g id="Logo">
<path id="Symbol" d="M122.502 1.93753C124 1.00003 127.469 0.76678 129.498 1.93753L181.498 31.9375C184.242 33.521 185.581 36.7499 184.762 39.8106C183.942 42.8714 181.169 45 178 45H172V104H176C178.209 104 180 105.791 180 108V114H183C186.866 114 190 117.134 190 121C190 124.866 186.866 128 183 128H69C65.134 128 62 124.866 62 121C62 117.134 65.134 114 69 114H72V108C72 105.791 73.7909 104 76 104H80V45H74C70.8313 45 68.0579 42.8714 67.2383 39.8106C66.4188 36.7499 67.7576 33.521 70.502 31.9375L122.502 1.93753ZM136.509 48C131.444 48.0001 128.012 50.7695 126 54.5801C123.988 50.7695 120.533 48.0001 115.491 48C107.444 48 100.248 54.6036 100.248 64.8047C100.248 75.0532 108.888 85.3494 121.598 93.8701C123.254 94.959 124.888 96 126 96C127.089 96 128.746 94.959 130.402 93.8701C143.112 85.3494 151.752 75.0532 151.752 64.8047C151.752 54.6036 144.556 48 136.509 48Z" fill="white"/>
</g>
</g>
</svg>
