<svg width="48" height="48" viewBox="0 0 48 48" fill="none" xmlns="http://www.w3.org/2000/svg">
<g clip-path="url(#clip0_315_1159)">
<path d="M22.6885 0.726587C23.2503 0.375146 24.5506 0.287722 25.3115 0.726587L44.8115 11.9766C45.8406 12.5704 46.3424 13.781 46.0352 14.9287C45.7278 16.0765 44.6882 16.875 43.5 16.875H41.25V39H42.75C43.5784 39 44.25 39.6716 44.25 40.5V42.75H45.375C46.8247 42.75 48 43.9253 48 45.375C48 46.8248 46.8247 48 45.375 48H2.625C1.17525 48 0 46.8248 0 45.375C8.24655e-06 43.9253 1.17526 42.75 2.625 42.75H3.75V40.5C3.75001 39.6716 4.42158 39 5.25 39H6.75V16.875H4.5C3.31175 16.875 2.27122 16.0765 1.96387 14.9287C1.65674 13.7811 2.15944 12.5703 3.18848 11.9766L22.6885 0.726587ZM27.9404 18C26.0412 18.0002 24.7544 19.0389 24 20.4678C23.2456 19.0389 21.9499 18.0002 20.0596 18C17.0418 18 14.3428 20.4764 14.3428 24.3018C14.3428 28.1449 17.5826 32.006 22.3486 35.2012C22.9699 35.6095 23.5828 36 24 36C24.4083 36 25.0301 35.6095 25.6514 35.2012C30.4174 32.006 33.6572 28.1449 33.6572 24.3018C33.6572 20.4764 30.9582 18 27.9404 18Z" fill="white"/>
</g>
<defs>
<clipPath id="clip0_315_1159">
<rect width="48" height="48" fill="white"/>
</clipPath>
</defs>
</svg>
