<svg width="263" height="209" viewBox="0 0 263 209" fill="none" xmlns="http://www.w3.org/2000/svg">
<g id="LaunchScreenLogo">
<path id="Name" d="M5.64893 198.375C4.00831 198.375 3.02393 197.344 3.02393 195.656V166.523C3.02393 164.836 4.00831 163.805 5.64893 163.805C7.26612 163.805 8.27393 164.836 8.27393 166.523V178.477H25.6411V166.523C25.6411 164.836 26.6255 163.805 28.2661 163.805C29.8833 163.805 30.8911 164.836 30.8911 166.523V195.656C30.8911 197.344 29.8833 198.375 28.2661 198.375C26.6255 198.375 25.6411 197.344 25.6411 195.656V183.023H8.27393V195.656C8.27393 197.344 7.26612 198.375 5.64893 198.375ZM47.1802 198.469C39.7505 198.469 35.3911 193.758 35.3911 185.789C35.3911 177.961 39.8442 172.898 46.8286 172.898C53.3911 172.898 57.9146 177.633 57.9146 184.359C57.9146 186 56.9771 186.938 55.4067 186.938H40.5005V187.055C40.5005 191.555 43.0317 194.367 47.063 194.367C49.8286 194.367 51.563 193.406 53.438 190.852C53.9771 190.219 54.4927 189.961 55.2192 189.961C56.438 189.961 57.3286 190.758 57.3286 192.023C57.3286 192.422 57.188 192.891 56.9771 193.383C55.3599 196.617 51.7739 198.469 47.1802 198.469ZM40.5239 183.398H52.8521C52.7349 179.531 50.3208 176.977 46.8052 176.977C43.313 176.977 40.7817 179.555 40.5239 183.398ZM69.0708 198.422C64.2427 198.422 60.8442 195.422 60.8442 190.992C60.8442 186.68 64.1724 184.031 70.0083 183.703L76.7817 183.305V181.406C76.7817 178.664 74.9302 177.023 71.8364 177.023C69.3989 177.023 67.7817 177.891 66.3755 180.141C65.8599 180.891 65.2036 181.219 64.313 181.219C63.0474 181.219 62.1333 180.375 62.1333 179.109C62.1333 178.594 62.2739 178.031 62.5786 177.469C63.8677 174.68 67.5942 172.898 72.0239 172.898C78.0005 172.898 81.8208 176.062 81.8208 181.008V195.891C81.8208 197.484 80.813 198.445 79.3833 198.445C77.9771 198.445 77.0161 197.531 76.9692 196.031V193.945H76.8521C75.4224 196.688 72.2817 198.422 69.0708 198.422ZM70.4536 194.414C73.9927 194.414 76.7817 191.977 76.7817 188.766V186.82L70.688 187.195C67.6646 187.406 65.9536 188.742 65.9536 190.852C65.9536 193.008 67.7583 194.414 70.4536 194.414ZM89.4614 198.445C87.9849 198.445 86.9302 197.438 86.9302 195.773V166.406C86.9302 164.742 87.9849 163.734 89.4614 163.734C90.938 163.734 91.9927 164.742 91.9927 166.406V195.773C91.9927 197.438 90.938 198.445 89.4614 198.445ZM98.6724 192.094V177.352H96.8911C95.5786 177.352 94.7817 176.602 94.7817 175.359C94.7817 174.094 95.5786 173.344 96.8911 173.344H98.6724V169.688C98.6724 168.07 99.6802 166.992 101.227 166.992C102.75 166.992 103.758 168.07 103.758 169.688V173.344H106.641C107.954 173.344 108.75 174.117 108.75 175.359C108.75 176.602 107.954 177.352 106.641 177.352H103.758V190.969C103.758 192.938 104.438 193.828 106.266 193.969L106.665 193.992C108.118 194.133 108.844 194.719 108.844 195.914C108.844 197.438 107.672 198.211 105.188 198.211H104.93C100.782 198.211 98.6724 196.172 98.6724 192.094ZM115.336 198.445C113.86 198.445 112.805 197.438 112.805 195.773V166.359C112.805 164.766 113.766 163.734 115.313 163.734C116.883 163.734 117.821 164.766 117.821 166.359V177.469H117.938C119.297 174.586 121.993 172.922 125.743 172.922C131.157 172.922 134.391 176.531 134.391 182.109V195.773C134.391 197.438 133.336 198.445 131.836 198.445C130.36 198.445 129.305 197.438 129.305 195.773V183.094C129.305 179.461 127.477 177.281 123.915 177.281C120.165 177.281 117.868 179.859 117.868 183.75V195.773C117.868 197.438 116.813 198.445 115.336 198.445ZM149.368 198.375C147.516 198.375 146.461 197.578 145.758 195.656L135.094 167.648C134.907 167.109 134.813 166.641 134.813 166.172C134.813 164.766 135.891 163.805 137.485 163.805C138.821 163.805 139.641 164.414 140.086 165.773L149.344 192.094H149.485L158.743 165.75C159.211 164.367 159.938 163.805 161.274 163.805C162.844 163.805 163.946 164.789 163.946 166.148C163.946 166.594 163.852 167.062 163.665 167.578L152.977 195.68C152.25 197.602 151.219 198.375 149.368 198.375ZM171.258 198.422C166.43 198.422 163.032 195.422 163.032 190.992C163.032 186.68 166.36 184.031 172.196 183.703L178.969 183.305V181.406C178.969 178.664 177.118 177.023 174.024 177.023C171.586 177.023 169.969 177.891 168.563 180.141C168.047 180.891 167.391 181.219 166.5 181.219C165.235 181.219 164.321 180.375 164.321 179.109C164.321 178.594 164.461 178.031 164.766 177.469C166.055 174.68 169.782 172.898 174.211 172.898C180.188 172.898 184.008 176.062 184.008 181.008V195.891C184.008 197.484 183 198.445 181.571 198.445C180.165 198.445 179.204 197.531 179.157 196.031V193.945H179.04C177.61 196.688 174.469 198.422 171.258 198.422ZM172.641 194.414C176.18 194.414 178.969 191.977 178.969 188.766V186.82L172.875 187.195C169.852 187.406 168.141 188.742 168.141 190.852C168.141 193.008 169.946 194.414 172.641 194.414ZM197.461 198.445C192.094 198.445 188.813 194.953 188.813 189.305V175.594C188.813 173.906 189.844 172.898 191.344 172.898C192.821 172.898 193.875 173.906 193.875 175.594V188.32C193.875 192.07 195.657 194.086 199.149 194.086C202.805 194.086 205.008 191.555 205.008 187.711V175.594C205.008 173.906 206.063 172.898 207.54 172.898C209.04 172.898 210.071 173.906 210.071 175.594V195.867C210.071 197.438 209.11 198.445 207.657 198.445C206.204 198.445 205.219 197.438 205.219 195.891V193.828H205.102C203.743 196.781 201.235 198.445 197.461 198.445ZM217.805 198.445C216.329 198.445 215.274 197.438 215.274 195.773V166.406C215.274 164.742 216.329 163.734 217.805 163.734C219.282 163.734 220.336 164.742 220.336 166.406V195.773C220.336 197.438 219.282 198.445 217.805 198.445ZM227.016 192.094V177.352H225.235C223.922 177.352 223.125 176.602 223.125 175.359C223.125 174.094 223.922 173.344 225.235 173.344H227.016V169.688C227.016 168.07 228.024 166.992 229.571 166.992C231.094 166.992 232.102 168.07 232.102 169.688V173.344H234.985C236.297 173.344 237.094 174.117 237.094 175.359C237.094 176.602 236.297 177.352 234.985 177.352H232.102V190.969C232.102 192.938 232.782 193.828 234.61 193.969L235.008 193.992C236.461 194.133 237.188 194.719 237.188 195.914C237.188 197.438 236.016 198.211 233.532 198.211H233.274C229.125 198.211 227.016 196.172 227.016 192.094ZM250.055 198.469C245.204 198.469 241.641 196.477 240.469 193.453C240.305 193.078 240.258 192.727 240.258 192.398C240.258 191.133 241.172 190.383 242.438 190.383C243.282 190.383 244.008 190.781 244.641 191.719C245.907 193.711 247.383 194.602 250.313 194.602C253.196 194.602 255.141 193.359 255.141 191.32C255.141 189.703 254.18 188.836 251.532 188.203L247.641 187.289C242.86 186.164 240.516 183.82 240.516 180.305C240.516 175.852 244.383 172.898 250.243 172.898C254.696 172.898 258.352 175.172 259.055 178.078C259.102 178.359 259.149 178.594 259.149 178.828C259.149 179.953 258.446 180.703 257.18 180.703C256.36 180.703 255.633 180.422 255.141 179.625C254.04 177.75 252.54 176.766 250.055 176.766C247.336 176.766 245.461 178.102 245.461 180.023C245.461 181.57 246.657 182.648 249.258 183.258L253.079 184.148C258.258 185.344 260.25 187.195 260.25 190.852C260.25 195.422 256.149 198.469 250.055 198.469Z" fill="url(#paint0_linear_255_6124)"/>
<g id="Logo" clip-path="url(#clip0_255_6124)">
<path id="Symbol" d="M127.849 2.02245C129.412 1.04401 133.033 0.800583 135.151 2.02245L189.42 33.332C192.284 34.9846 193.682 38.3545 192.826 41.5488C191.971 44.743 189.077 46.9639 185.77 46.9639H179.508V108.54H183.683C185.988 108.54 187.856 110.409 187.857 112.714V118.977H190.989C195.023 118.977 198.293 122.248 198.293 126.282C198.293 130.317 195.023 133.587 190.989 133.587H72.012C67.9774 133.587 64.7066 130.317 64.7064 126.282C64.7064 122.247 67.9773 118.977 72.012 118.977H75.1429V112.714C75.1431 110.409 77.0123 108.54 79.3177 108.54H83.4925V46.9639H77.2298C73.9231 46.9637 71.0287 44.7429 70.1732 41.5488C69.3179 38.3546 70.7153 34.9847 73.5794 33.332L127.849 2.02245ZM142.674 50.0957C137.388 50.0957 133.806 52.9851 131.706 56.9619C129.607 52.9851 126 50.0957 120.739 50.0957C112.34 50.0958 104.83 56.9874 104.83 67.6338C104.831 78.3295 113.847 89.0752 127.112 97.9678C128.841 99.1042 130.545 100.19 131.706 100.19C132.843 100.19 134.572 99.1042 136.301 97.9678C149.566 89.0752 158.582 78.3295 158.582 67.6338C158.582 56.9874 151.073 50.0958 142.674 50.0957Z" fill="url(#paint1_linear_255_6124)"/>
</g>
</g>
<defs>
<linearGradient id="paint0_linear_255_6124" x1="130.782" y1="152" x2="130.782" y2="209" gradientUnits="userSpaceOnUse">
<stop stop-color="#FF5EA3"/>
<stop offset="1" stop-color="#FF4741"/>
</linearGradient>
<linearGradient id="paint1_linear_255_6124" x1="131.5" y1="1.19482" x2="131.5" y2="133.587" gradientUnits="userSpaceOnUse">
<stop stop-color="#FF5EA3"/>
<stop offset="1" stop-color="#FF4741"/>
</linearGradient>
<clipPath id="clip0_255_6124">
<rect width="133.587" height="133.587" fill="white" transform="translate(64.7064)"/>
</clipPath>
</defs>
</svg>
