<?xml version="1.0" encoding="UTF-8"?>
<!--Generator: Apple Native CoreSVG 341-->
<!DOCTYPE svg
PUBLIC "-//W3C//DTD SVG 1.1//EN"
       "http://www.w3.org/Graphics/SVG/1.1/DTD/svg11.dtd">
<svg version="1.1" xmlns="http://www.w3.org/2000/svg" xmlns:xlink="http://www.w3.org/1999/xlink" viewBox="0 0 3300 2200">
 <!--glyph: "", point size: 100.0, font version: "20.0d10e1", template writer version: "138.0.0"-->
 <style>.monochrome-0 {-sfsymbols-motion-group:1;-sfsymbols-layer-tags:-6e6ca8207d362929 -ad4032087f6bb98 chart.line.text.clipboard.fill}
.monochrome-1 {opacity:0.0;-sfsymbols-clear-behind:true;-sfsymbols-motion-group:1;-sfsymbols-layer-tags:-6e6ca8207d362929 -ad4032087f6bb98 chart.line.text.clipboard.fill}
.monochrome-2 {opacity:0.0;-sfsymbols-clear-behind:true;-sfsymbols-motion-group:0;-sfsymbols-layer-tags:-6e6ca8207d362929 _badge plus}
.monochrome-3 {-sfsymbols-motion-group:0;-sfsymbols-always-pulses:true;-sfsymbols-layer-tags:-6e6ca8207d362929 _badge plus}
.monochrome-4 {opacity:0.0;-sfsymbols-clear-behind:true;-sfsymbols-motion-group:0;-sfsymbols-always-pulses:true;-sfsymbols-layer-tags:-6e6ca8207d362929 _badge plus}

.multicolor-0:tintColor {-sfsymbols-motion-group:1;-sfsymbols-layer-tags:-6e6ca8207d362929 -ad4032087f6bb98 chart.line.text.clipboard.fill}
.multicolor-1:tintColor {opacity:0.0;-sfsymbols-clear-behind:true;-sfsymbols-motion-group:1;-sfsymbols-layer-tags:-6e6ca8207d362929 -ad4032087f6bb98 chart.line.text.clipboard.fill}
.multicolor-2:tintColor {opacity:0.0;-sfsymbols-clear-behind:true;-sfsymbols-motion-group:0;-sfsymbols-layer-tags:-6e6ca8207d362929 _badge plus}
.multicolor-3:systemGreenColor {-sfsymbols-motion-group:0;-sfsymbols-always-pulses:true;-sfsymbols-layer-tags:-6e6ca8207d362929 _badge plus}
.multicolor-4:white {-sfsymbols-motion-group:0;-sfsymbols-always-pulses:true;-sfsymbols-layer-tags:-6e6ca8207d362929 _badge plus}

.hierarchical-0:secondary {-sfsymbols-motion-group:1;-sfsymbols-layer-tags:-6e6ca8207d362929 -ad4032087f6bb98 chart.line.text.clipboard.fill}
.hierarchical-1:primary {opacity:0.0;-sfsymbols-clear-behind:true;-sfsymbols-motion-group:1;-sfsymbols-layer-tags:-6e6ca8207d362929 -ad4032087f6bb98 chart.line.text.clipboard.fill}
.hierarchical-2:primary {opacity:0.0;-sfsymbols-clear-behind:true;-sfsymbols-motion-group:0;-sfsymbols-layer-tags:-6e6ca8207d362929 _badge plus}
.hierarchical-3:primary {-sfsymbols-motion-group:0;-sfsymbols-layer-tags:-6e6ca8207d362929 _badge plus}
.hierarchical-4:primary {opacity:0.0;-sfsymbols-clear-behind:true;-sfsymbols-motion-group:0;-sfsymbols-layer-tags:-6e6ca8207d362929 _badge plus}

.SFSymbolsPreviewWireframe {fill:none;opacity:1.0;stroke:black;stroke-width:0.5}
</style>
 <g id="Notes">
  <rect height="2200" id="artboard" style="fill:white;opacity:1" width="3300" x="0" y="0"/>
  <line style="fill:none;stroke:black;opacity:1;stroke-width:0.5;" x1="263" x2="3036" y1="292" y2="292"/>
  <text style="stroke:none;fill:black;font-family:sans-serif;font-size:13;font-weight:bold;" transform="matrix(1 0 0 1 263 322)">Weight/Scale Variations</text>
  <text style="stroke:none;fill:black;font-family:sans-serif;font-size:13;text-anchor:middle;" transform="matrix(1 0 0 1 559.711 322)">Ultralight</text>
  <text style="stroke:none;fill:black;font-family:sans-serif;font-size:13;text-anchor:middle;" transform="matrix(1 0 0 1 856.422 322)">Thin</text>
  <text style="stroke:none;fill:black;font-family:sans-serif;font-size:13;text-anchor:middle;" transform="matrix(1 0 0 1 1153.13 322)">Light</text>
  <text style="stroke:none;fill:black;font-family:sans-serif;font-size:13;text-anchor:middle;" transform="matrix(1 0 0 1 1449.84 322)">Regular</text>
  <text style="stroke:none;fill:black;font-family:sans-serif;font-size:13;text-anchor:middle;" transform="matrix(1 0 0 1 1746.56 322)">Medium</text>
  <text style="stroke:none;fill:black;font-family:sans-serif;font-size:13;text-anchor:middle;" transform="matrix(1 0 0 1 2043.27 322)">Semibold</text>
  <text style="stroke:none;fill:black;font-family:sans-serif;font-size:13;text-anchor:middle;" transform="matrix(1 0 0 1 2339.98 322)">Bold</text>
  <text style="stroke:none;fill:black;font-family:sans-serif;font-size:13;text-anchor:middle;" transform="matrix(1 0 0 1 2636.69 322)">Heavy</text>
  <text style="stroke:none;fill:black;font-family:sans-serif;font-size:13;text-anchor:middle;" transform="matrix(1 0 0 1 2933.4 322)">Black</text>
  <line style="fill:none;stroke:black;opacity:1;stroke-width:0.5;" x1="263" x2="3036" y1="1903" y2="1903"/>
  <g transform="matrix(0.2 0 0 0.2 263 1933)">
   <path d="m46.2402 4.15039c21.7773 0 39.4531-17.627 39.4531-39.4043s-17.6758-39.4043-39.4531-39.4043c-21.7285 0-39.4043 17.627-39.4043 39.4043s17.6758 39.4043 39.4043 39.4043Zm0-7.42188c-17.6758 0-31.9336-14.3066-31.9336-31.9824s14.2578-31.9824 31.9336-31.9824 31.9824 14.3066 31.9824 31.9824-14.3066 31.9824-31.9824 31.9824Zm-17.9688-31.9824c0 2.14844 1.51367 3.61328 3.75977 3.61328h10.498v10.5957c0 2.19727 1.46484 3.71094 3.61328 3.71094 2.24609 0 3.71094-1.51367 3.71094-3.71094v-10.5957h10.5957c2.19727 0 3.71094-1.46484 3.71094-3.61328 0-2.19727-1.51367-3.71094-3.71094-3.71094h-10.5957v-10.5469c0-2.24609-1.46484-3.75977-3.71094-3.75977-2.14844 0-3.61328 1.51367-3.61328 3.75977v10.5469h-10.498c-2.24609 0-3.75977 1.51367-3.75977 3.71094Z"/>
  </g>
  <g transform="matrix(0.2 0 0 0.2 281.506 1933)">
   <path d="m58.5449 14.5508c27.4902 0 49.8047-22.3145 49.8047-49.8047s-22.3145-49.8047-49.8047-49.8047-49.8047 22.3145-49.8047 49.8047 22.3145 49.8047 49.8047 49.8047Zm0-8.30078c-22.9492 0-41.5039-18.5547-41.5039-41.5039s18.5547-41.5039 41.5039-41.5039 41.5039 18.5547 41.5039 41.5039-18.5547 41.5039-41.5039 41.5039Zm-22.6562-41.5039c0 2.39258 1.66016 4.00391 4.15039 4.00391h14.3555v14.4043c0 2.44141 1.66016 4.15039 4.05273 4.15039 2.44141 0 4.15039-1.66016 4.15039-4.15039v-14.4043h14.4043c2.44141 0 4.15039-1.61133 4.15039-4.00391 0-2.44141-1.70898-4.15039-4.15039-4.15039h-14.4043v-14.3555c0-2.49023-1.70898-4.19922-4.15039-4.19922-2.39258 0-4.05273 1.70898-4.05273 4.19922v14.3555h-14.3555c-2.49023 0-4.15039 1.70898-4.15039 4.15039Z"/>
  </g>
  <g transform="matrix(0.2 0 0 0.2 304.924 1933)">
   <path d="m74.8535 28.3203c35.1074 0 63.623-28.4668 63.623-63.5742s-28.5156-63.623-63.623-63.623-63.5742 28.5156-63.5742 63.623 28.4668 63.5742 63.5742 63.5742Zm0-9.08203c-30.127 0-54.4922-24.3652-54.4922-54.4922s24.3652-54.4922 54.4922-54.4922 54.4922 24.3652 54.4922 54.4922-24.3652 54.4922-54.4922 54.4922Zm-28.8574-54.4922c0 2.58789 1.85547 4.39453 4.58984 4.39453h19.7266v19.7754c0 2.68555 1.85547 4.58984 4.44336 4.58984 2.68555 0 4.54102-1.85547 4.54102-4.58984v-19.7754h19.7754c2.68555 0 4.58984-1.80664 4.58984-4.39453 0-2.73438-1.85547-4.58984-4.58984-4.58984h-19.7754v-19.7266c0-2.73438-1.85547-4.63867-4.54102-4.63867-2.58789 0-4.44336 1.9043-4.44336 4.63867v19.7266h-19.7266c-2.73438 0-4.58984 1.85547-4.58984 4.58984Z"/>
  </g>
  <text style="stroke:none;fill:black;font-family:sans-serif;font-size:13;font-weight:bold;" transform="matrix(1 0 0 1 263 1953)">Design Variations</text>
  <text style="stroke:none;fill:black;font-family:sans-serif;font-size:13;" transform="matrix(1 0 0 1 263 1971)">Symbols are supported in up to nine weights and three scales.</text>
  <text style="stroke:none;fill:black;font-family:sans-serif;font-size:13;" transform="matrix(1 0 0 1 263 1989)">For optimal layout with text and other symbols, vertically align</text>
  <text style="stroke:none;fill:black;font-family:sans-serif;font-size:13;" transform="matrix(1 0 0 1 263 2007)">symbols with the adjacent text.</text>
  <line style="fill:none;stroke:#00AEEF;stroke-width:0.5;opacity:1.0;" x1="776" x2="776" y1="1919" y2="1933"/>
  <g transform="matrix(0.2 0 0 0.2 776 1933)">
   <path d="m16.5527 0.78125c2.58789 0 3.85742-0.976562 4.78516-3.71094l6.29883-17.2363h28.8086l6.29883 17.2363c0.927734 2.73438 2.19727 3.71094 4.73633 3.71094 2.58789 0 4.24805-1.5625 4.24805-4.00391 0-0.830078-0.146484-1.61133-0.537109-2.63672l-22.9004-60.9863c-1.12305-2.97852-3.125-4.49219-6.25-4.49219-3.02734 0-5.07812 1.46484-6.15234 4.44336l-22.9004 61.084c-0.390625 1.02539-0.537109 1.80664-0.537109 2.63672 0 2.44141 1.5625 3.95508 4.10156 3.95508Zm13.4766-28.3691 11.8652-32.8613h0.244141l11.8652 32.8613Z"/>
  </g>
  <line style="fill:none;stroke:#00AEEF;stroke-width:0.5;opacity:1.0;" x1="792.836" x2="792.836" y1="1919" y2="1933"/>
  <text style="stroke:none;fill:black;font-family:sans-serif;font-size:13;font-weight:bold;" transform="matrix(1 0 0 1 776 1953)">Margins</text>
  <text style="stroke:none;fill:black;font-family:sans-serif;font-size:13;" transform="matrix(1 0 0 1 776 1971)">Leading and trailing margins on the left and right side of each symbol</text>
  <text style="stroke:none;fill:black;font-family:sans-serif;font-size:13;" transform="matrix(1 0 0 1 776 1989)">can be adjusted by modifying the x-location of the margin guidelines.</text>
  <text style="stroke:none;fill:black;font-family:sans-serif;font-size:13;" transform="matrix(1 0 0 1 776 2007)">Modifications are automatically applied proportionally to all</text>
  <text style="stroke:none;fill:black;font-family:sans-serif;font-size:13;" transform="matrix(1 0 0 1 776 2025)">scales and weights.</text>
  <g transform="matrix(0.2 0 0 0.2 1289 1933)">
   <path d="m14.209 9.32617 8.49609 8.54492c4.29688 4.3457 9.22852 4.05273 13.8672-1.07422l53.4668-58.9355-4.83398-4.88281-53.0762 58.3984c-1.75781 2.00195-3.41797 2.49023-5.76172 0.146484l-5.85938-5.81055c-2.34375-2.29492-1.80664-4.00391 0.195312-5.81055l57.373-54.0039-4.88281-4.83398-57.959 54.4434c-4.93164 4.58984-5.32227 9.47266-1.02539 13.8184Zm32.0801-90.9668c-2.09961 2.05078-2.24609 4.93164-1.07422 6.88477 1.17188 1.80664 3.4668 2.97852 6.68945 2.14844 7.32422-1.70898 14.9414-2.00195 22.0703 2.68555l-2.92969 7.27539c-1.70898 4.15039-0.830078 7.08008 1.85547 9.81445l11.4746 11.5723c2.44141 2.44141 4.49219 2.53906 7.32422 2.05078l5.32227-0.976562 3.32031 3.36914-0.195312 2.7832c-0.195312 2.49023 0.439453 4.39453 2.88086 6.78711l3.80859 3.71094c2.39258 2.39258 5.46875 2.53906 7.8125 0.195312l14.5508-14.5996c2.34375-2.34375 2.24609-5.32227-0.146484-7.71484l-3.85742-3.80859c-2.39258-2.39258-4.24805-3.17383-6.64062-2.97852l-2.88086 0.244141-3.22266-3.17383 1.2207-5.61523c0.634766-2.83203-0.146484-5.0293-3.07617-7.95898l-10.9863-10.9375c-16.6992-16.6016-38.8672-16.2109-53.3203-1.75781Zm7.4707 1.85547c12.1582-8.88672 28.6133-7.37305 39.7461 3.75977l12.1582 12.0605c1.17188 1.17188 1.36719 2.09961 1.02539 3.80859l-1.61133 7.42188 7.51953 7.42188 4.93164-0.292969c1.26953-0.0488281 1.66016 0.0488281 2.63672 1.02539l2.88086 2.88086-12.207 12.207-2.88086-2.88086c-0.976562-0.976562-1.12305-1.36719-1.07422-2.68555l0.341797-4.88281-7.4707-7.42188-7.61719 1.26953c-1.61133 0.341797-2.34375 0.195312-3.56445-0.976562l-10.0098-10.0098c-1.26953-1.17188-1.41602-2.00195-0.634766-3.85742l4.39453-10.4492c-7.8125-7.27539-17.9688-10.4004-28.125-7.42188-0.78125 0.195312-1.07422-0.439453-0.439453-0.976562Z"/>
  </g>
  <text style="stroke:none;fill:black;font-family:sans-serif;font-size:13;font-weight:bold;" transform="matrix(1 0 0 1 1289 1953)">Exporting</text>
  <text style="stroke:none;fill:black;font-family:sans-serif;font-size:13;" transform="matrix(1 0 0 1 1289 1971)">Symbols should be outlined when exporting to ensure the</text>
  <text style="stroke:none;fill:black;font-family:sans-serif;font-size:13;" transform="matrix(1 0 0 1 1289 1989)">design is preserved when submitting to Xcode.</text>
  <text id="template-version" style="stroke:none;fill:black;font-family:sans-serif;font-size:13;text-anchor:end;" transform="matrix(1 0 0 1 3036 1933)">Template v.6.0</text>
  <text style="stroke:none;fill:black;font-family:sans-serif;font-size:13;text-anchor:end;" transform="matrix(1 0 0 1 3036 1951)">Requires Xcode 16 or greater</text>
  <text id="descriptive-name" style="stroke:none;fill:black;font-family:sans-serif;font-size:13;text-anchor:end;" transform="matrix(1 0 0 1 3036 1969)">Generated from </text>
  <text style="stroke:none;fill:black;font-family:sans-serif;font-size:13;text-anchor:end;" transform="matrix(1 0 0 1 3036 1987)">Typeset at 100.0 points</text>
  <text style="stroke:none;fill:black;font-family:sans-serif;font-size:13;" transform="matrix(1 0 0 1 263 726)">Small</text>
  <text style="stroke:none;fill:black;font-family:sans-serif;font-size:13;" transform="matrix(1 0 0 1 263 1156)">Medium</text>
  <text style="stroke:none;fill:black;font-family:sans-serif;font-size:13;" transform="matrix(1 0 0 1 263 1586)">Large</text>
 </g>
 <g id="Guides">
  <g id="H-reference" style="fill:#27AAE1;stroke:none;" transform="matrix(1 0 0 1 339 696)">
   <path d="M0.993654 0L3.63775 0L29.3281-67.1323L30.0303-67.1323L30.0303-70.459L28.1226-70.459ZM11.6885-24.4799L46.9815-24.4799L46.2315-26.7285L12.4385-26.7285ZM55.1196 0L57.7637 0L30.6382-70.459L29.4326-70.459L29.4326-67.1323Z"/>
  </g>
  <line id="Baseline-S" style="fill:none;stroke:#27AAE1;opacity:1;stroke-width:0.5;" x1="263" x2="3036" y1="696" y2="696"/>
  <line id="Capline-S" style="fill:none;stroke:#27AAE1;opacity:1;stroke-width:0.5;" x1="263" x2="3036" y1="625.541" y2="625.541"/>
  <g id="H-reference" style="fill:#27AAE1;stroke:none;" transform="matrix(1 0 0 1 339 1126)">
   <path d="M0.993654 0L3.63775 0L29.3281-67.1323L30.0303-67.1323L30.0303-70.459L28.1226-70.459ZM11.6885-24.4799L46.9815-24.4799L46.2315-26.7285L12.4385-26.7285ZM55.1196 0L57.7637 0L30.6382-70.459L29.4326-70.459L29.4326-67.1323Z"/>
  </g>
  <line id="Baseline-M" style="fill:none;stroke:#27AAE1;opacity:1;stroke-width:0.5;" x1="263" x2="3036" y1="1126" y2="1126"/>
  <line id="Capline-M" style="fill:none;stroke:#27AAE1;opacity:1;stroke-width:0.5;" x1="263" x2="3036" y1="1055.54" y2="1055.54"/>
  <g id="H-reference" style="fill:#27AAE1;stroke:none;" transform="matrix(1 0 0 1 339 1556)">
   <path d="M0.993654 0L3.63775 0L29.3281-67.1323L30.0303-67.1323L30.0303-70.459L28.1226-70.459ZM11.6885-24.4799L46.9815-24.4799L46.2315-26.7285L12.4385-26.7285ZM55.1196 0L57.7637 0L30.6382-70.459L29.4326-70.459L29.4326-67.1323Z"/>
  </g>
  <line id="Baseline-L" style="fill:none;stroke:#27AAE1;opacity:1;stroke-width:0.5;" x1="263" x2="3036" y1="1556" y2="1556"/>
  <line id="Capline-L" style="fill:none;stroke:#27AAE1;opacity:1;stroke-width:0.5;" x1="263" x2="3036" y1="1485.54" y2="1485.54"/>
  <line id="right-margin-Black-S" style="fill:none;stroke:#FF3B30;stroke-width:0.5;opacity:1.0;" x1="2978.71" x2="2978.71" y1="600.785" y2="720.121"/>
  <line id="left-margin-Black-S" style="fill:none;stroke:#00AEEF;stroke-width:0.5;opacity:1.0;" x1="2888.09" x2="2888.09" y1="600.785" y2="720.121"/>
  <line id="right-margin-Regular-S" style="fill:none;stroke:#FF3B30;stroke-width:0.5;opacity:1.0;" x1="1492.13" x2="1492.13" y1="600.785" y2="720.121"/>
  <line id="left-margin-Regular-S" style="fill:none;stroke:#00AEEF;stroke-width:0.5;opacity:1.0;" x1="1407.56" x2="1407.56" y1="600.785" y2="720.121"/>
  <line id="right-margin-Ultralight-S" style="fill:none;stroke:#FF3B30;stroke-width:0.5;opacity:1.0;" x1="600.134" x2="600.134" y1="600.785" y2="720.121"/>
  <line id="left-margin-Ultralight-S" style="fill:none;stroke:#00AEEF;stroke-width:0.5;opacity:1.0;" x1="519.288" x2="519.288" y1="600.785" y2="720.121"/>
 </g>
 <g id="Symbols">
  <g id="Black-S" transform="matrix(1 0 0 1 2888.09 696)">
   <path class="monochrome-0 multicolor-0:tintColor hierarchical-0:secondary SFSymbolsPreviewWireframe" d="M25.0977 10.9863L65.5273 10.9863C74.707 10.9863 80.8594 4.78516 80.8594-4.54102L80.8594-61.9141C80.8594-71.2402 74.707-77.4414 65.5273-77.4414L65.0879-77.4414C65.7715-76.123 66.1133-74.5605 66.1133-72.8516L66.1133-68.8477C66.1133-63.3301 62.4023-59.375 56.9336-59.375L33.6914-59.375C28.2227-59.375 24.5117-63.3301 24.5117-68.8477L24.5117-72.8516C24.5117-74.5605 24.8535-76.123 25.5371-77.4414L25.0977-77.4414C15.918-77.4414 9.76562-71.2402 9.76562-61.9141L9.76562-4.54102C9.76562 4.78516 15.918 10.9863 25.0977 10.9863ZM33.6914-64.2578L56.9336-64.2578C59.6191-64.2578 61.2305-65.9668 61.2305-68.8477L61.2305-72.8516C61.2305-75.7324 59.6191-77.4414 56.9336-77.4414L55.0293-77.4414C54.6387-82.4707 50.4883-86.4746 45.3125-86.4746C40.1367-86.4746 35.9863-82.4707 35.5957-77.4414L33.6914-77.4414C31.0059-77.4414 29.3945-75.7324 29.3945-72.8516L29.3945-68.8477C29.3945-65.9668 31.0059-64.2578 33.6914-64.2578ZM45.3125-73.4375C43.3105-73.4375 41.6992-75.0977 41.6992-77.0508C41.6992-79.0039 43.3105-80.6152 45.3125-80.6152C47.3145-80.6152 48.9258-79.0039 48.9258-77.0508C48.9258-75.0977 47.3145-73.4375 45.3125-73.4375Z"/>
   <path class="monochrome-1 multicolor-1:tintColor hierarchical-1:primary SFSymbolsPreviewWireframe" d="M43.5059-30.3711C41.3086-30.3711 38.623-32.0312 38.623-35.4004L33.252-38.7207C32.5684-38.3301 31.7871-38.1348 30.957-38.1348C28.2227-38.1348 26.0254-40.4297 26.0254-43.0664C26.0254-45.752 28.2227-47.998 30.957-47.998C34.0332-47.998 36.3281-45.459 35.791-42.334L40.6738-39.3066C41.4551-39.8926 42.4316-40.2344 43.5059-40.2344C44.5312-40.2344 45.5078-39.8926 46.2891-39.3555L55.0293-45.6543C54.1504-48.3398 56.25-51.9043 59.7168-51.9043C62.4512-51.9043 64.6484-49.6582 64.6484-46.9727C64.6484-44.3359 62.4512-42.041 59.7168-42.041C59.1309-42.041 58.5449-42.1387 58.0566-42.334L48.4375-35.4492C48.4375-32.0312 45.752-30.3711 43.5059-30.3711ZM29.5898-19.0918C27.832-19.0918 26.5625-20.4102 26.5625-22.1191C26.5625-23.7305 27.832-25 29.5898-25L61.1328-25C62.8418-25 64.1113-23.7305 64.1113-22.1191C64.1113-20.4102 62.8418-19.0918 61.1328-19.0918ZM29.5898-3.90625C27.832-3.90625 26.5625-5.22461 26.5625-6.88477C26.5625-8.54492 27.832-9.81445 29.5898-9.81445L49.0234-9.81445C50.6836-9.81445 51.9531-8.54492 51.9531-6.88477C51.9531-5.22461 50.6836-3.90625 49.0234-3.90625Z"/>
   <path class="monochrome-2 multicolor-2:tintColor hierarchical-2:primary SFSymbolsPreviewWireframe" d="M81.5581 20.2491C96.4998 20.2491 108.853 7.84665 108.853-7.09475C108.853-22.0361 96.4998-34.3408 81.5581-34.3408C66.6167-34.3408 54.2632-22.0361 54.2632-7.09475C54.2632 7.84665 66.6167 20.2491 81.5581 20.2491Z"/>
   <path class="monochrome-3 multicolor-3:systemGreenColor hierarchical-3:primary SFSymbolsPreviewWireframe" d="M81.5581 13.9014C93.0328 13.9014 102.506 4.33105 102.506-7.09475C102.506-18.5205 93.0328-27.9931 81.5581-27.9931C70.0835-27.9931 60.6108-18.5205 60.6108-7.09475C60.6108 4.33105 70.0835 13.9014 81.5581 13.9014Z"/>
   <path class="monochrome-4 multicolor-4:white hierarchical-4:primary SFSymbolsPreviewWireframe" d="M81.5581 6.96775C79.2143 6.96775 77.6518 5.40525 77.6518 3.11035L77.6518-3.13965L71.4995-3.13965C69.2046-3.13965 67.5932-4.70215 67.5932-7.04595C67.5932-9.38965 69.1069-10.9521 71.4995-10.9521L77.6518-10.9521L77.6518-17.0556C77.6518-19.3505 79.2143-20.9619 81.5581-20.9619C83.9018-20.9619 85.4643-19.4482 85.4643-17.0556L85.4643-10.9521L91.6658-10.9521C93.9608-10.9521 95.5228-9.38965 95.5228-7.04595C95.5228-4.70215 93.9608-3.13965 91.6658-3.13965L85.4643-3.13965L85.4643 3.11035C85.4643 5.40525 83.9018 6.96775 81.5581 6.96775Z"/>
  </g>
  <g id="Regular-S" transform="matrix(1 0 0 1 1407.56 696)">
   <path class="monochrome-0 multicolor-0:tintColor hierarchical-0:secondary SFSymbolsPreviewWireframe" d="M22.0215 9.13086L62.5 9.13086C70.7031 9.13086 74.8047 5.0293 74.8047-3.32031L74.8047-60.791C74.8047-69.0918 70.7031-73.2422 62.9883-73.2422L62.7441-73.2422C62.7441-73.0957 62.7441-72.9004 62.7441-72.7539L62.7441-68.0176C62.7441-62.8418 59.2773-59.1309 54.1504-59.1309L30.3711-59.1309C25.293-59.1309 21.8262-62.8418 21.8262-68.0176L21.8262-72.7539C21.8262-72.9004 21.8262-73.0957 21.8262-73.2422L21.582-73.2422C13.8184-73.2422 9.76562-69.0918 9.76562-60.791L9.76562-3.32031C9.76562 5.0293 13.8184 9.13086 22.0215 9.13086ZM30.3711-63.916L54.1504-63.916C56.543-63.916 58.0078-65.4297 58.0078-68.0176L58.0078-72.1191C58.0078-74.707 56.543-76.2207 54.1504-76.2207L50.9766-76.2207C50.6836-80.7129 46.9238-84.3262 42.2852-84.3262C37.6465-84.3262 33.8867-80.7129 33.5449-76.2207L30.3711-76.2207C27.9785-76.2207 26.5625-74.707 26.5625-72.1191L26.5625-68.0176C26.5625-65.4297 27.9785-63.916 30.3711-63.916ZM42.2852-72.5586C40.4785-72.5586 38.9648-74.0723 38.9648-75.8789C38.9648-77.6855 40.4785-79.1504 42.2852-79.1504C44.0918-79.1504 45.5566-77.6855 45.5566-75.8789C45.5566-74.0723 44.0918-72.5586 42.2852-72.5586Z"/>
   <path class="monochrome-1 multicolor-1:tintColor hierarchical-1:primary SFSymbolsPreviewWireframe" d="M42.0898-31.6895C39.9902-31.6895 38.3789-33.2031 38.0859-35.1074L28.0762-40.2344C27.4414-39.7949 26.6602-39.5508 25.8301-39.5508C23.584-39.5508 21.7773-41.3574 21.7773-43.6523C21.7773-45.8984 23.584-47.7051 25.8301-47.7051C28.0273-47.7051 29.7363-46.0449 29.8828-43.8477L39.5996-38.9648C40.2832-39.502 41.1133-39.8438 42.0898-39.8438C42.7246-39.8438 43.3594-39.6973 43.8965-39.4531L54.6387-47.2168C54.6387-50.0977 56.7383-51.4648 58.6914-51.4648C60.9863-51.4648 62.7441-49.6582 62.7441-47.3633C62.7441-45.166 60.9863-43.3105 58.6914-43.3105C58.0566-43.3105 57.4219-43.457 56.8848-43.7012L46.1426-35.9863C46.1426-33.0566 44.043-31.6895 42.0898-31.6895ZM25.0488-18.7012C23.4863-18.7012 22.2656-19.9219 22.2656-21.4844C22.2656-22.998 23.4863-24.2188 25.0488-24.2188L59.5215-24.2188C61.084-24.2188 62.3047-22.998 62.3047-21.4844C62.3047-19.9219 61.084-18.7012 59.5215-18.7012ZM25.0488-4.00391C23.5352-4.00391 22.2656-5.27344 22.2656-6.78711C22.2656-8.30078 23.4863-9.52148 25.0488-9.52148L44.7266-9.52148C46.2891-9.52148 47.5098-8.30078 47.5098-6.78711C47.5098-5.27344 46.2402-4.00391 44.7266-4.00391Z"/>
   <path class="monochrome-2 multicolor-2:tintColor hierarchical-2:primary SFSymbolsPreviewWireframe" d="M76.113 18.3447C89.9316 18.3447 101.504 6.7725 101.504-7.0459C101.504-20.9619 90.0286-32.4365 76.113-32.4365C62.1481-32.4365 50.7224-20.9619 50.7224-7.0459C50.7224 6.919 62.1481 18.3447 76.113 18.3447Z"/>
   <path class="monochrome-3 multicolor-3:systemGreenColor hierarchical-3:primary SFSymbolsPreviewWireframe" d="M76.113 12.6318C86.7576 12.6318 95.7906 3.6963 95.7906-7.0459C95.7906-17.8369 86.9036-26.7236 76.113-26.7236C65.322-26.7236 56.3864-17.8369 56.3864-7.0459C56.3864 3.794 65.322 12.6318 76.113 12.6318Z"/>
   <path class="monochrome-4 multicolor-4:white hierarchical-4:primary SFSymbolsPreviewWireframe" d="M76.113 5.21C74.5505 5.21 73.5739 4.1846 73.5739 2.6709L73.5739-4.5068L66.3962-4.5068C64.8825-4.5068 63.8571-5.5322 63.8571-7.0459C63.8571-8.5596 64.8825-9.585 66.3962-9.585L73.5739-9.585L73.5739-16.7627C73.5739-18.2764 74.5505-19.3018 76.113-19.3018C77.6266-19.3018 78.652-18.2764 78.652-16.7627L78.652-9.585L85.8296-9.585C87.3436-9.585 88.3196-8.5596 88.3196-7.0459C88.3196-5.5322 87.3436-4.5068 85.8296-4.5068L78.652-4.5068L78.652 2.6709C78.652 4.1846 77.6266 5.21 76.113 5.21Z"/>
  </g>
  <g id="Ultralight-S" transform="matrix(1 0 0 1 519.288 696)">
   <path class="monochrome-0 multicolor-0:tintColor hierarchical-0:secondary SFSymbolsPreviewWireframe" d="M19.751 7.76857L61.0923 7.76857C67.6607 7.76857 71.0811 4.34815 71.0811-2.18507L71.0811-62.8799C71.0811-69.4097 67.6607-72.8789 61.1265-72.8789L57.3858-72.8789C57.3858-72.7324 57.3858-72.5371 57.3858-72.3906L57.3858-68.6987C57.3858-65.521 55.0996-63.354 51.8799-63.354L28.9634-63.354C25.7471-63.354 23.4609-65.521 23.4609-68.6987L23.4609-72.3906C23.4609-72.5371 23.4609-72.7324 23.4609-72.8789L19.7202-72.8789C13.228-72.8789 9.76562-69.4097 9.76562-62.8799L9.76562-2.18507C9.76562 4.34815 13.228 7.76857 19.751 7.76857ZM28.9634-66.3681L51.8799-66.3681C53.4551-66.3681 54.375-67.2461 54.375-68.6987L54.375-72.3916C54.375-73.8897 53.4551-74.7222 51.8799-74.7222L46.9351-74.7222C46.9146-78.3516 44.0176-81.2837 40.4234-81.2837C36.8745-81.2837 33.9321-78.3516 33.9082-74.7222L28.9634-74.7222C27.4336-74.7222 26.4717-73.8897 26.4717-72.3916L26.4717-68.6987C26.4717-67.2461 27.4336-66.3681 28.9634-66.3681ZM40.4234-71.1963C38.4351-71.1963 36.876-72.8008 36.876-74.7437C36.876-76.7774 38.4351-78.333 40.4234-78.333C42.4116-78.333 43.9673-76.7774 43.9673-74.7437C43.9673-72.8008 42.4116-71.1963 40.4234-71.1963Z"/>
   <path class="monochrome-1 multicolor-1:tintColor hierarchical-1:primary SFSymbolsPreviewWireframe" d="M40.1372-34.3232C38.5825-34.3232 37.3799-35.5644 37.3594-37.1055L25.8511-42.9136C25.3526-42.4287 24.6621-42.1391 23.9229-42.1391C22.3579-42.1391 21.1416-43.4009 21.1416-44.9692C21.1416-46.4888 22.3579-47.7505 23.9229-47.7505C25.2119-47.7505 26.7393-46.8623 26.7041-44.7559L38.0557-39.0103C38.5576-39.5928 39.2969-39.9346 40.1372-39.9346C40.9082-39.9346 41.5884-39.6519 42.0801-39.1353L54.23-48.9878C53.8213-50.7334 55.0581-52.4184 56.9204-52.4184C58.4888-52.4184 59.7471-51.2021 59.7471-49.6338C59.7471-48.0722 58.4888-46.8525 56.9204-46.8525C56.3311-46.8525 55.7871-47.0444 55.3408-47.334L42.9185-37.3032C42.9639-35.4634 41.5908-34.3232 40.1372-34.3232ZM22.2334-22.8335C21.6245-22.8335 21.1304-23.3276 21.1304-23.8911C21.1304-24.4966 21.6245-24.9453 22.2334-24.9453L58.6587-24.9453C59.2222-24.9453 59.7163-24.4966 59.7163-23.8911C59.7163-23.3276 59.2222-22.8335 58.6587-22.8335ZM22.2334-7.77292C21.6279-7.77292 21.1304-8.22507 21.1304-8.83055C21.1304-9.43603 21.6245-9.88476 22.2334-9.88476L43.0464-9.88476C43.6553-9.88476 44.104-9.43603 44.104-8.83055C44.104-8.22507 43.6519-7.77292 43.0464-7.77292Z"/>
   <path class="monochrome-2 multicolor-2:tintColor hierarchical-2:primary SFSymbolsPreviewWireframe" d="M72.7839 14.3033C84.4225 14.3033 94.1335 4.68365 94.1335-7.04585C94.1335-18.7821 84.4745-28.395 72.7839-28.395C61.0895-28.395 51.3893-18.7367 51.3893-7.04585C51.3893 4.69395 61.0895 14.3033 72.7839 14.3033Z"/>
   <path class="monochrome-3 multicolor-3:systemGreenColor hierarchical-3:primary SFSymbolsPreviewWireframe" d="M72.7839 11.2242C82.7475 11.2242 91.0535 3.01515 91.0535-7.04585C91.0535-17.1103 82.8025-25.3158 72.7839-25.3158C62.7648-25.3158 54.465-17.0649 54.465-7.04585C54.465 3.02205 62.7648 11.2242 72.7839 11.2242Z"/>
   <path class="monochrome-4 multicolor-4:white hierarchical-4:primary SFSymbolsPreviewWireframe" d="M72.7839 4.84675C71.8117 4.84675 71.2438 4.18465 71.2438 3.30665L71.2438-5.55125L62.3859-5.55125C61.5988-5.55125 60.8913-6.07705 60.8913-7.04585C60.8913-8.01465 61.5988-8.58595 62.3859-8.58595L71.2438-8.58595L71.2438-17.3529C71.2438-18.1855 71.8117-18.893 72.7839-18.893C73.7072-18.893 74.2785-18.1855 74.2785-17.3529L74.2785-8.58595L83.0905-8.58595C83.9235-8.58595 84.5825-8.01465 84.5825-7.04585C84.5825-6.07705 83.9235-5.55125 83.0905-5.55125L74.2785-5.55125L74.2785 3.30665C74.2785 4.18465 73.7072 4.84675 72.7839 4.84675Z"/>
  </g>
 </g>
</svg>
