<svg width="64" height="65" viewBox="0 0 64 65" fill="none" xmlns="http://www.w3.org/2000/svg">
<g id="AppIconAlt2">
<g id="Logo">
<g id="Frame">
<g id="Symbol">
<path id="Vector" d="M22.7518 52.6314H41.2308C45.3916 52.6314 48.1364 49.8692 48.1364 45.6384V19.4321C48.1364 15.2013 45.3916 12.4391 41.2482 12.4391H41.0734C41.3531 12.9986 41.493 13.6629 41.493 14.3797V16.2503C41.493 18.7503 39.8147 20.551 37.3147 20.551H26.6678C24.1853 20.551 22.4895 18.7503 22.4895 16.2503V14.3797C22.4895 13.6629 22.6469 12.9986 22.9266 12.4391H22.7343C18.5909 12.4391 15.8636 15.2013 15.8636 19.4321V45.6384C15.8636 49.8692 18.5909 52.6314 22.7518 52.6314ZM26.6678 18.3307H37.3147C38.5384 18.3307 39.2727 17.544 39.2727 16.2503V14.4146C39.2727 13.1034 38.5384 12.3342 37.3147 12.3342H36.4056C36.2308 10.044 34.3427 8.22583 32 8.22583C29.6573 8.22583 27.7692 10.044 27.5944 12.3342H26.6678C25.4615 12.3342 24.7273 13.1034 24.7273 14.4146V16.2503C24.7273 17.544 25.4615 18.3307 26.6678 18.3307ZM32 14.1349C31.0909 14.1349 30.3567 13.3832 30.3567 12.509C30.3567 11.6174 31.0909 10.8832 32 10.8832C32.9091 10.8832 33.6259 11.6174 33.6259 12.509C33.6259 13.3832 32.9091 14.1349 32 14.1349Z" fill="url(#paint0_linear_113_6430)" fill-opacity="0.2"/>
<path id="Vector_2" d="M31.2308 33.7503C30.2343 33.7503 29.0455 32.9985 29.028 31.5125L26.4056 29.9217C26.0909 30.1139 25.7412 30.2014 25.3566 30.2014C24.1154 30.2014 23.1364 29.1698 23.1364 27.9811C23.1364 26.7573 24.1154 25.7433 25.3566 25.7433C26.7203 25.7433 27.7518 26.8797 27.542 28.2783L29.9545 29.7293C30.3042 29.4496 30.7413 29.3098 31.2308 29.3098C31.6853 29.3098 32.1224 29.4496 32.4721 29.6769L36.528 26.7573C36.1608 25.516 37.1224 23.9776 38.6608 23.9776C39.8846 23.9776 40.8811 24.9916 40.8811 26.1979C40.8811 27.3867 39.8846 28.4181 38.6608 28.4181C38.3811 28.4181 38.1189 28.3657 37.8916 28.2783L33.451 31.4601C33.451 32.9985 32.2448 33.7503 31.2308 33.7503ZM24.7623 38.9775C23.9581 38.9775 23.3811 38.3656 23.3811 37.5964C23.3811 36.8622 23.9581 36.2853 24.7623 36.2853H39.2727C40.0595 36.2853 40.6364 36.8622 40.6364 37.5964C40.6364 38.3656 40.0595 38.9775 39.2727 38.9775H24.7623ZM24.7623 45.9006C23.9581 45.9006 23.3811 45.2887 23.3811 44.537C23.3811 43.7853 23.9581 43.2083 24.7623 43.2083H33.6434C34.3951 43.2083 34.9721 43.7853 34.9721 44.537C34.9721 45.2887 34.3951 45.9006 33.6434 45.9006H24.7623Z" fill="url(#paint1_linear_113_6430)"/>
</g>
</g>
</g>
</g>
<defs>
<linearGradient id="paint0_linear_113_6430" x1="32" y1="8.22583" x2="32" y2="52.6314" gradientUnits="userSpaceOnUse">
<stop stop-color="#FF5EA3"/>
<stop offset="1" stop-color="#FF4741"/>
</linearGradient>
<linearGradient id="paint1_linear_113_6430" x1="32.0087" y1="23.9776" x2="32.0087" y2="45.9006" gradientUnits="userSpaceOnUse">
<stop stop-color="#FF5EA3"/>
<stop offset="1" stop-color="#FF4741"/>
</linearGradient>
</defs>
</svg>
