<svg width="64" height="65" viewBox="0 0 64 65" fill="none" xmlns="http://www.w3.org/2000/svg">
<g id="AppIconAlt">
<g id="Logo">
<g id="Frame">
<g id="Symbol">
<path id="Vector" d="M22.7518 52.6314H41.2308C45.3916 52.6314 48.1364 49.8692 48.1364 45.6384V19.4321C48.1364 15.2188 45.4091 12.4391 41.2482 12.4391H40.9685C41.2482 13.016 41.3881 13.6804 41.3881 14.4146V16.2503C41.3881 16.9845 41.2482 17.6664 40.9511 18.2433H41.0909C41.8426 18.2433 42.3322 18.7328 42.3322 19.467V45.6034C42.3322 46.3377 41.8252 46.8272 41.056 46.8272H22.9441C22.1573 46.8272 21.6678 46.3377 21.6678 45.6034V19.467C21.6678 18.7328 22.1573 18.2433 22.9091 18.2433H23.0315C22.7343 17.6664 22.5944 16.9845 22.5944 16.2503V14.4146C22.5944 13.6804 22.7343 13.016 23.0315 12.4391H22.7343C18.5909 12.4391 15.8636 15.2188 15.8636 19.4321V45.6384C15.8636 49.8692 18.5909 52.6314 22.7518 52.6314ZM26.6678 18.3307H37.3147C38.5384 18.3307 39.2727 17.544 39.2727 16.2503V14.4146C39.2727 13.1034 38.5384 12.3342 37.3147 12.3342H36.4056C36.2308 10.044 34.3427 8.22583 32 8.22583C29.6573 8.22583 27.7692 10.044 27.5944 12.3342H26.6678C25.4615 12.3342 24.7273 13.1034 24.7273 14.4146V16.2503C24.7273 17.544 25.4615 18.3307 26.6678 18.3307ZM32 14.1349C31.0909 14.1349 30.3567 13.3832 30.3567 12.509C30.3567 11.6174 31.0909 10.8832 32 10.8832C32.9091 10.8832 33.6259 11.6174 33.6259 12.509C33.6259 13.3832 32.9091 14.1349 32 14.1349Z" fill="url(#paint0_linear_113_6434)"/>
<path id="Vector_2" d="M25.2691 35.6383H38.7655C39.4823 35.6383 40.0068 35.0963 40.0068 34.3795C40.0068 33.6803 39.4823 33.1383 38.7655 33.1383H25.2691C24.5348 33.1383 23.9928 33.6803 23.9928 34.3795C23.9928 35.0963 24.5348 35.6383 25.2691 35.6383ZM25.2691 42.0719H33.5208C34.2201 42.0719 34.7621 41.5124 34.7621 40.7956C34.7621 40.1138 34.2376 39.5719 33.5208 39.5719H25.2691C24.5348 39.5719 23.9928 40.1138 23.9928 40.7956C23.9928 41.5124 24.5348 42.0719 25.2691 42.0719ZM25.8285 27.474C26.9823 27.474 27.8915 26.5299 27.8915 25.411C27.8915 24.2922 26.9823 23.3481 25.8285 23.3481C24.6747 23.3481 23.7831 24.2922 23.7831 25.411C23.7831 26.5299 24.6747 27.474 25.8285 27.474ZM24.9544 26.0929L31.1257 29.8516L32.2096 28.3132L25.9509 24.5369L24.9544 26.0929ZM31.3005 30.7607C32.4369 30.7607 33.346 29.8167 33.346 28.7153C33.346 27.5789 32.4369 26.6348 31.3005 26.6348C30.1467 26.6348 29.2376 27.5789 29.2376 28.7153C29.2376 29.8167 30.1467 30.7607 31.3005 30.7607ZM30.7411 28.2257L31.8075 29.7467L39.3076 24.3621L38.1887 22.8586L30.7411 28.2257ZM38.1887 25.8307C39.325 25.8307 40.2341 24.8691 40.2341 23.7677C40.2341 22.6488 39.325 21.6873 38.1887 21.6873C37.0348 21.6873 36.1257 22.6488 36.1257 23.7677C36.1257 24.8691 37.0348 25.8307 38.1887 25.8307Z" fill="#FF375F"/>
</g>
</g>
</g>
</g>
<defs>
<linearGradient id="paint0_linear_113_6434" x1="32" y1="8.22583" x2="32" y2="52.6314" gradientUnits="userSpaceOnUse">
<stop stop-color="#FF5EA3"/>
<stop offset="1" stop-color="#FF4741"/>
</linearGradient>
</defs>
</svg>
