<svg width="64" height="65" viewBox="0 0 64 65" fill="none" xmlns="http://www.w3.org/2000/svg">
<g id="AppIcon">
<g id="Logo">
<g id="Frame">
<g id="Symbol">
<path id="Subtract" d="M22.9263 12.439C22.6466 12.9984 22.4897 13.6636 22.4897 14.3804V16.2505C22.4897 18.7503 24.1852 20.551 26.6675 20.5513H37.3149C39.8149 20.5512 41.4927 18.7504 41.4927 16.2505V14.3804C41.4927 13.6636 41.3534 12.9984 41.0737 12.439H41.2485C45.3918 12.439 48.1361 15.2016 48.1362 19.4321V45.6382C48.1362 49.8689 45.3918 52.6313 41.231 52.6313H22.7515C18.5909 52.6312 15.8638 49.8688 15.8638 45.6382V19.4321C15.8639 15.2015 18.5916 12.439 22.7349 12.439H22.9263ZM24.7622 43.2085C23.9581 43.2086 23.3813 43.7859 23.3813 44.5376C23.3815 45.2891 23.9582 45.9008 24.7622 45.9009H33.6431C34.3947 45.9009 34.972 45.2892 34.9722 44.5376C34.9722 43.7859 34.3948 43.2085 33.6431 43.2085H24.7622ZM24.7622 36.2856C23.9583 36.2858 23.3816 36.8622 23.3813 37.5962C23.3813 38.3653 23.9581 38.9779 24.7622 38.978H39.2729C40.0597 38.978 40.6362 38.3654 40.6362 37.5962C40.636 36.8622 40.0595 36.2857 39.2729 36.2856H24.7622ZM38.6606 23.978C37.1225 23.9782 36.1609 25.5162 36.5278 26.7573L32.4722 29.6772C32.1225 29.45 31.6855 29.3101 31.231 29.3101C30.7414 29.3101 30.3043 29.4503 29.9546 29.73L27.5425 28.2788C27.7523 26.8803 26.7205 25.7437 25.3569 25.7437C24.1158 25.7437 23.1364 26.7573 23.1362 27.981C23.1362 29.1697 24.1157 30.2017 25.3569 30.2017C25.7414 30.2016 26.0911 30.1145 26.4058 29.9224L29.0278 31.5132C29.0455 32.9989 30.2346 33.7505 31.231 33.7505C32.2449 33.7505 33.4516 32.9988 33.4517 31.4604L37.8921 28.2788C38.1192 28.3661 38.3812 28.4184 38.6606 28.4185C39.8844 28.4185 40.8813 27.3865 40.8813 26.1978C40.8811 24.9916 39.8843 23.978 38.6606 23.978ZM32.0005 8.22607C34.343 8.22626 36.231 10.0444 36.4058 12.3345H37.3149C38.5385 12.3345 39.2728 13.1036 39.2729 14.4146V16.2505C39.2729 17.5441 38.5386 18.3305 37.3149 18.3306H26.6675C25.4615 18.3304 24.7271 17.544 24.7271 16.2505V14.4146C24.7272 13.1037 25.4616 12.3347 26.6675 12.3345H27.5942C27.7691 10.0443 29.6578 8.22607 32.0005 8.22607ZM32.0005 10.8833C31.0914 10.8833 30.3569 11.6177 30.3569 12.5093C30.3569 13.3834 31.0913 14.1353 32.0005 14.1353C32.9094 14.1351 33.6265 13.3833 33.6265 12.5093C33.6265 11.6178 32.9094 10.8835 32.0005 10.8833Z" fill="url(#paint0_linear_113_6426)"/>
</g>
</g>
</g>
</g>
<defs>
<linearGradient id="paint0_linear_113_6426" x1="32" y1="8.22607" x2="32" y2="52.6313" gradientUnits="userSpaceOnUse">
<stop stop-color="#FF5EA3"/>
<stop offset="1" stop-color="#FF4741"/>
</linearGradient>
</defs>
</svg>
