<?xml version="1.0" encoding="UTF-8"?>
<!DOCTYPE svg
PUBLIC "-//W3C//DTD SVG 1.1//EN"
     "http://www.w3.org/Graphics/SVG/1.1/DTD/svg11.dtd">
<svg version="1.1" xmlns="http://www.w3.org/2000/svg" xmlns:xlink="http://www.w3.org/1999/xlink" width="3300" height="2200">
<!--glyph: "uni100000.medium", point size: 100.0, font version: "19.0d6e1", template writer version: "123"-->
<style>.SFSymbolsPreviewWireframe {fill:none;opacity:1.0;stroke:black;stroke-width:0.5}
</style>
<g id="Notes">
<rect height="2200" id="artboard" style="fill:white;opacity:1" width="3300" x="0" y="0"/>
<line style="fill:none;stroke:black;opacity:1;stroke-width:0.5;" x1="263" x2="3036" y1="292" y2="292"/>
<text style="stroke:none;fill:black;font-family:sans-serif;font-size:13;font-weight:bold;" transform="matrix(1 0 0 1 263 322)">Weight/Scale Variations</text>
<text style="stroke:none;fill:black;font-family:sans-serif;font-size:13;text-anchor:middle;" transform="matrix(1 0 0 1 559.711 322)">Ultralight</text>
<text style="stroke:none;fill:black;font-family:sans-serif;font-size:13;text-anchor:middle;" transform="matrix(1 0 0 1 856.422 322)">Thin</text>
<text style="stroke:none;fill:black;font-family:sans-serif;font-size:13;text-anchor:middle;" transform="matrix(1 0 0 1 1153.13 322)">Light</text>
<text style="stroke:none;fill:black;font-family:sans-serif;font-size:13;text-anchor:middle;" transform="matrix(1 0 0 1 1449.84 322)">Regular</text>
<text style="stroke:none;fill:black;font-family:sans-serif;font-size:13;text-anchor:middle;" transform="matrix(1 0 0 1 1746.56 322)">Medium</text>
<text style="stroke:none;fill:black;font-family:sans-serif;font-size:13;text-anchor:middle;" transform="matrix(1 0 0 1 2043.27 322)">Semibold</text>
<text style="stroke:none;fill:black;font-family:sans-serif;font-size:13;text-anchor:middle;" transform="matrix(1 0 0 1 2339.98 322)">Bold</text>
<text style="stroke:none;fill:black;font-family:sans-serif;font-size:13;text-anchor:middle;" transform="matrix(1 0 0 1 2636.69 322)">Heavy</text>
<text style="stroke:none;fill:black;font-family:sans-serif;font-size:13;text-anchor:middle;" transform="matrix(1 0 0 1 2933.4 322)">Black</text>
<line style="fill:none;stroke:black;opacity:1;stroke-width:0.5;" x1="263" x2="3036" y1="1903" y2="1903"/>
<g transform="matrix(0.2 0 0 0.2 263 1933)">
 <path d="m46.2402 4.15039c21.5332 0 39.4531-17.8711 39.4531-39.4043s-17.9688-39.4043-39.502-39.4043c-21.4844 0-39.3555 17.8711-39.3555 39.4043s17.9199 39.4043 39.4043 39.4043Zm0-7.42188c-17.7246 0-31.8848-14.209-31.8848-31.9824s14.1113-31.9824 31.8359-31.9824c17.7734 0 32.0312 14.209 32.0312 31.9824s-14.209 31.9824-31.9824 31.9824Zm-17.9688-31.9824c0 2.14844 1.51367 3.61328 3.75977 3.61328h10.498v10.5957c0 2.19727 1.46484 3.71094 3.61328 3.71094 2.24609 0 3.71094-1.51367 3.71094-3.71094v-10.5957h10.5957c2.19727 0 3.71094-1.46484 3.71094-3.61328 0-2.19727-1.51367-3.71094-3.71094-3.71094h-10.5957v-10.5469c0-2.24609-1.46484-3.75977-3.71094-3.75977-2.14844 0-3.61328 1.51367-3.61328 3.75977v10.5469h-10.498c-2.24609 0-3.75977 1.51367-3.75977 3.71094Z"/>
</g>
<g transform="matrix(0.2 0 0 0.2 281.506 1933)">
 <path d="m58.5449 14.5508c27.2461 0 49.8047-22.6074 49.8047-49.8047 0-27.2461-22.6074-49.8047-49.8535-49.8047-27.1973 0-49.7559 22.5586-49.7559 49.8047 0 27.1973 22.6074 49.8047 49.8047 49.8047Zm0-8.30078c-23.0469 0-41.4551-18.457-41.4551-41.5039s18.3594-41.5039 41.4062-41.5039 41.5527 18.457 41.5527 41.5039-18.457 41.5039-41.5039 41.5039Zm-22.6562-41.5039c0 2.39258 1.66016 4.00391 4.15039 4.00391h14.3555v14.4043c0 2.44141 1.66016 4.15039 4.05273 4.15039 2.44141 0 4.15039-1.66016 4.15039-4.15039v-14.4043h14.4043c2.44141 0 4.15039-1.61133 4.15039-4.00391 0-2.44141-1.70898-4.15039-4.15039-4.15039h-14.4043v-14.3555c0-2.49023-1.70898-4.19922-4.15039-4.19922-2.39258 0-4.05273 1.70898-4.05273 4.19922v14.3555h-14.3555c-2.49023 0-4.15039 1.70898-4.15039 4.15039Z"/>
</g>
<g transform="matrix(0.2 0 0 0.2 304.924 1933)">
 <path d="m74.8535 28.3203c34.8145 0 63.623-28.8086 63.623-63.5742 0-34.8145-28.8574-63.623-63.6719-63.623-34.7656 0-63.5254 28.8086-63.5254 63.623 0 34.7656 28.8086 63.5742 63.5742 63.5742Zm0-9.08203c-30.1758 0-54.4434-24.3164-54.4434-54.4922 0-30.2246 24.2188-54.4922 54.3945-54.4922 30.2246 0 54.541 24.2676 54.541 54.4922 0 30.1758-24.2676 54.4922-54.4922 54.4922Zm-28.8574-54.4922c0 2.58789 1.85547 4.39453 4.58984 4.39453h19.7266v19.7754c0 2.68555 1.85547 4.58984 4.44336 4.58984 2.68555 0 4.54102-1.85547 4.54102-4.58984v-19.7754h19.7754c2.68555 0 4.58984-1.80664 4.58984-4.39453 0-2.73438-1.85547-4.58984-4.58984-4.58984h-19.7754v-19.7266c0-2.73438-1.85547-4.63867-4.54102-4.63867-2.58789 0-4.44336 1.9043-4.44336 4.63867v19.7266h-19.7266c-2.73438 0-4.58984 1.85547-4.58984 4.58984Z"/>
</g>
<text style="stroke:none;fill:black;font-family:sans-serif;font-size:13;font-weight:bold;" transform="matrix(1 0 0 1 263 1953)">Design Variations</text>
<text style="stroke:none;fill:black;font-family:sans-serif;font-size:13;" transform="matrix(1 0 0 1 263 1971)">Symbols are supported in up to nine weights and three scales.</text>
<text style="stroke:none;fill:black;font-family:sans-serif;font-size:13;" transform="matrix(1 0 0 1 263 1989)">For optimal layout with text and other symbols, vertically align</text>
<text style="stroke:none;fill:black;font-family:sans-serif;font-size:13;" transform="matrix(1 0 0 1 263 2007)">symbols with the adjacent text.</text>
<line style="fill:none;stroke:#00AEEF;stroke-width:0.5;opacity:1.0;" x1="776" x2="776" y1="1919" y2="1933"/>
<g transform="matrix(0.2 0 0 0.2 776 1933)">
 <path d="m16.5527 0.78125c2.58789 0 3.85742-0.976562 4.78516-3.71094l6.29883-17.2363h28.8086l6.29883 17.2363c0.927734 2.73438 2.19727 3.71094 4.73633 3.71094 2.58789 0 4.24805-1.5625 4.24805-4.00391 0-0.830078-0.146484-1.61133-0.537109-2.63672l-22.9004-60.9863c-1.12305-2.97852-3.125-4.49219-6.25-4.49219-3.02734 0-5.07812 1.46484-6.15234 4.44336l-22.9004 61.084c-0.390625 1.02539-0.537109 1.80664-0.537109 2.63672 0 2.44141 1.5625 3.95508 4.10156 3.95508Zm13.4766-28.3691 11.8652-32.8613h0.244141l11.8652 32.8613Z"/>
</g>
<line style="fill:none;stroke:#00AEEF;stroke-width:0.5;opacity:1.0;" x1="792.836" x2="792.836" y1="1919" y2="1933"/>
<text style="stroke:none;fill:black;font-family:sans-serif;font-size:13;font-weight:bold;" transform="matrix(1 0 0 1 776 1953)">Margins</text>
<text style="stroke:none;fill:black;font-family:sans-serif;font-size:13;" transform="matrix(1 0 0 1 776 1971)">Leading and trailing margins on the left and right side of each symbol</text>
<text style="stroke:none;fill:black;font-family:sans-serif;font-size:13;" transform="matrix(1 0 0 1 776 1989)">can be adjusted by modifying the x-location of the margin guidelines.</text>
<text style="stroke:none;fill:black;font-family:sans-serif;font-size:13;" transform="matrix(1 0 0 1 776 2007)">Modifications are automatically applied proportionally to all</text>
<text style="stroke:none;fill:black;font-family:sans-serif;font-size:13;" transform="matrix(1 0 0 1 776 2025)">scales and weights.</text>
<g transform="matrix(0.2 0 0 0.2 1289 1933)">
 <path d="m14.209 9.32617 8.49609 8.54492c4.29688 4.3457 9.22852 4.05273 13.8672-1.07422l53.4668-58.9355-4.83398-4.88281-53.0762 58.3984c-1.75781 2.00195-3.41797 2.49023-5.76172 0.146484l-5.85938-5.81055c-2.34375-2.29492-1.80664-4.00391 0.195312-5.81055l57.373-54.0039-4.88281-4.83398-57.959 54.4434c-4.93164 4.58984-5.32227 9.47266-1.02539 13.8184Zm32.0801-90.9668c-2.09961 2.05078-2.24609 4.93164-1.07422 6.88477 1.17188 1.80664 3.4668 2.97852 6.68945 2.14844 7.32422-1.70898 14.9414-2.00195 22.0703 2.68555l-2.92969 7.27539c-1.70898 4.15039-0.830078 7.08008 1.85547 9.81445l11.4746 11.5723c2.44141 2.44141 4.49219 2.53906 7.32422 2.05078l5.32227-0.976562 3.32031 3.36914-0.195312 2.7832c-0.195312 2.49023 0.439453 4.39453 2.88086 6.78711l3.80859 3.71094c2.39258 2.39258 5.46875 2.53906 7.8125 0.195312l14.5508-14.5996c2.34375-2.34375 2.24609-5.32227-0.146484-7.71484l-3.85742-3.80859c-2.39258-2.39258-4.24805-3.17383-6.64062-2.97852l-2.88086 0.244141-3.22266-3.17383 1.2207-5.61523c0.634766-2.83203-0.146484-5.0293-3.07617-7.95898l-10.9863-10.9375c-16.6992-16.6016-38.8672-16.2109-53.3203-1.75781Zm7.4707 1.85547c12.1582-8.88672 28.6133-7.37305 39.7461 3.75977l12.1582 12.0605c1.17188 1.17188 1.36719 2.09961 1.02539 3.80859l-1.61133 7.42188 7.51953 7.42188 4.93164-0.292969c1.26953-0.0488281 1.66016 0.0488281 2.63672 1.02539l2.88086 2.88086-12.207 12.207-2.88086-2.88086c-0.976562-0.976562-1.12305-1.36719-1.07422-2.68555l0.341797-4.88281-7.4707-7.42188-7.61719 1.26953c-1.61133 0.341797-2.34375 0.195312-3.56445-0.976562l-10.0098-10.0098c-1.26953-1.17188-1.41602-2.00195-0.634766-3.85742l4.39453-10.4492c-7.8125-7.27539-17.9688-10.4004-28.125-7.42188-0.78125 0.195312-1.07422-0.439453-0.439453-0.976562Z"/>
</g>
<text style="stroke:none;fill:black;font-family:sans-serif;font-size:13;font-weight:bold;" transform="matrix(1 0 0 1 1289 1953)">Exporting</text>
<text style="stroke:none;fill:black;font-family:sans-serif;font-size:13;" transform="matrix(1 0 0 1 1289 1971)">Symbols should be outlined when exporting to ensure the</text>
<text style="stroke:none;fill:black;font-family:sans-serif;font-size:13;" transform="matrix(1 0 0 1 1289 1989)">design is preserved when submitting to Xcode.</text>
<text id="template-version" style="stroke:none;fill:black;font-family:sans-serif;font-size:13;text-anchor:end;" transform="matrix(1 0 0 1 3036 1933)">Template v.5.0</text>
<text style="stroke:none;fill:black;font-family:sans-serif;font-size:13;text-anchor:end;" transform="matrix(1 0 0 1 3036 1951)">Requires Xcode 15 or greater</text>
<text id="descriptive-name" style="stroke:none;fill:black;font-family:sans-serif;font-size:13;text-anchor:end;" transform="matrix(1 0 0 1 3036 1969)">Generated from circle</text>
<text style="stroke:none;fill:black;font-family:sans-serif;font-size:13;text-anchor:end;" transform="matrix(1 0 0 1 3036 1987)">Typeset at 100.0 points</text>
<text style="stroke:none;fill:black;font-family:sans-serif;font-size:13;" transform="matrix(1 0 0 1 263 726)">Small</text>
<text style="stroke:none;fill:black;font-family:sans-serif;font-size:13;" transform="matrix(1 0 0 1 263 1156)">Medium</text>
<text style="stroke:none;fill:black;font-family:sans-serif;font-size:13;" transform="matrix(1 0 0 1 263 1586)">Large</text>
</g>
<g id="Guides">
<g id="H-reference" style="fill:#27AAE1;stroke:none;" transform="matrix(1 0 0 1 339 696)">
 <path d="M0.993654 0L3.63775 0L29.3281-67.1323L30.0303-67.1323L30.0303-70.459L28.1226-70.459ZM11.6885-24.4799L46.9815-24.4799L46.2315-26.7285L12.4385-26.7285ZM55.1196 0L57.7637 0L30.6382-70.459L29.4326-70.459L29.4326-67.1323Z"/>
</g>
<line id="Baseline-S" style="fill:none;stroke:#27AAE1;opacity:1;stroke-width:0.5;" x1="263" x2="3036" y1="696" y2="696"/>
<line id="Capline-S" style="fill:none;stroke:#27AAE1;opacity:1;stroke-width:0.5;" x1="263" x2="3036" y1="625.541" y2="625.541"/>
<g id="H-reference" style="fill:#27AAE1;stroke:none;" transform="matrix(1 0 0 1 339 1126)">
 <path d="M0.993654 0L3.63775 0L29.3281-67.1323L30.0303-67.1323L30.0303-70.459L28.1226-70.459ZM11.6885-24.4799L46.9815-24.4799L46.2315-26.7285L12.4385-26.7285ZM55.1196 0L57.7637 0L30.6382-70.459L29.4326-70.459L29.4326-67.1323Z"/>
</g>
<line id="Baseline-M" style="fill:none;stroke:#27AAE1;opacity:1;stroke-width:0.5;" x1="263" x2="3036" y1="1126" y2="1126"/>
<line id="Capline-M" style="fill:none;stroke:#27AAE1;opacity:1;stroke-width:0.5;" x1="263" x2="3036" y1="1055.54" y2="1055.54"/>
<g id="H-reference" style="fill:#27AAE1;stroke:none;" transform="matrix(1 0 0 1 339 1556)">
 <path d="M0.993654 0L3.63775 0L29.3281-67.1323L30.0303-67.1323L30.0303-70.459L28.1226-70.459ZM11.6885-24.4799L46.9815-24.4799L46.2315-26.7285L12.4385-26.7285ZM55.1196 0L57.7637 0L30.6382-70.459L29.4326-70.459L29.4326-67.1323Z"/>
</g>
<line id="Baseline-L" style="fill:none;stroke:#27AAE1;opacity:1;stroke-width:0.5;" x1="263" x2="3036" y1="1556" y2="1556"/>
<line id="Capline-L" style="fill:none;stroke:#27AAE1;opacity:1;stroke-width:0.5;" x1="263" x2="3036" y1="1485.54" y2="1485.54"/>
<line id="left-margin-Ultralight-S" style="fill:none;stroke:#00AEEF;stroke-width:0.5;opacity:1.0;" x1="515.649" x2="515.649" y1="600.785" y2="720.121"/>
<line id="right-margin-Ultralight-S" style="fill:none;stroke:#00AEEF;stroke-width:0.5;opacity:1.0;" x1="603.773" x2="603.773" y1="600.785" y2="720.121"/>
<line id="left-margin-Regular-S" style="fill:none;stroke:#00AEEF;stroke-width:0.5;opacity:1.0;" x1="1403.58" x2="1403.58" y1="600.785" y2="720.121"/>
<line id="right-margin-Regular-S" style="fill:none;stroke:#00AEEF;stroke-width:0.5;opacity:1.0;" x1="1496.11" x2="1496.11" y1="600.785" y2="720.121"/>
<line id="left-margin-Black-S" style="fill:none;stroke:#00AEEF;stroke-width:0.5;opacity:1.0;" x1="2884.57" x2="2884.57" y1="600.785" y2="720.121"/>
<line id="right-margin-Black-S" style="fill:none;stroke:#00AEEF;stroke-width:0.5;opacity:1.0;" x1="2982.23" x2="2982.23" y1="600.785" y2="720.121"/>
</g>
<g id="Symbols">
<g id="Black-S" transform="matrix(1 0 0 1 2884.57 696) translate(3 -81.25)">
<path d="M15.2422 8.52734C14.5971 9.77172 14.2745 11.2465 14.2744 12.8594V16.6396C14.2746 21.8477 17.7776 25.5808 22.9395 25.5811H44.8799C50.042 25.581 53.5447 21.8478 53.5449 16.6396V12.8594C53.5449 11.2464 53.2223 9.77175 52.5771 8.52734H52.9922C61.6574 8.52744 67.4648 14.3811 67.4648 23.1846V77.3428C67.4648 86.1463 61.6574 91.9999 52.9922 92H14.8281C6.16282 92 0.354537 86.1463 0.354492 77.3428V23.1846C0.354492 14.381 6.16278 8.52734 14.8281 8.52734H15.2422ZM19.0684 72.3643C17.4092 72.3643 16.2102 73.5629 16.21 75.1299C16.21 76.697 17.4091 77.9414 19.0684 77.9414H37.4131C38.9801 77.9413 40.1787 76.6969 40.1787 75.1299C40.1785 73.563 38.98 72.3644 37.4131 72.3643H19.0684ZM19.0684 58.0303C17.4091 58.0303 16.21 59.2289 16.21 60.75C16.2102 62.3629 17.4092 63.6074 19.0684 63.6074H48.8438C50.4568 63.6074 51.655 62.3629 51.6553 60.75C51.6553 59.2289 50.457 58.0303 48.8438 58.0303H19.0684ZM47.5068 32.6328C44.2344 32.6329 42.2524 35.9982 43.082 38.5332L34.832 44.4785C34.0945 43.9715 33.172 43.6494 32.2041 43.6494C31.1901 43.6495 30.2687 43.9723 29.5312 44.5254L24.9219 41.667C25.4287 38.7172 23.2621 36.3203 20.3584 36.3203C17.7776 36.3205 15.7033 38.4407 15.7031 40.9756C15.7031 43.4645 17.7774 45.6307 20.3584 45.6309C21.142 45.6309 21.8801 45.4468 22.5254 45.0781L27.5947 48.2129C27.595 51.3928 30.1301 52.9598 32.2041 52.96C34.3243 52.96 36.8594 51.3925 36.8594 48.166L45.9395 41.667C46.4003 41.8513 46.9538 41.9443 47.5068 41.9443C50.088 41.9443 52.1621 39.7771 52.1621 37.2881C52.1619 34.7533 50.0879 32.6328 47.5068 32.6328ZM33.9102 0C38.7958 0.000156723 42.7133 3.77994 43.082 8.52734H44.8799C47.4148 8.52738 48.9354 10.1402 48.9355 12.8594V16.6396C48.9354 19.3588 47.4147 20.9716 44.8799 20.9717H22.9395C20.4048 20.9715 18.8839 19.3587 18.8838 16.6396V12.8594C18.8839 10.1403 20.4048 8.52754 22.9395 8.52734H24.7373C25.106 3.77985 29.0244 0 33.9102 0ZM33.9102 5.53125C32.0204 5.53125 30.4992 7.05196 30.499 8.89551C30.499 10.7392 32.0203 12.3066 33.9102 12.3066C35.7998 12.3065 37.3203 10.7391 37.3203 8.89551C37.3202 7.05206 35.7997 5.53141 33.9102 5.53125Z" fill="url(#paint0_linear_176_3740)"/>
<defs>
<linearGradient id="paint0_linear_176_3740" x1="33.9096" y1="0" x2="33.9096" y2="92" gradientUnits="userSpaceOnUse">
<stop stop-color="#FF5EA3"/>
<stop offset="1" stop-color="#FF4741"/>
</linearGradient>
</defs>
</g>
<g id="Regular-S" transform="matrix(1 0 0 1 1403.58 696) translate(0 -81.25)">
 <path d="M12.1875 10.9131V16.0566C12.1877 21.1516 15.6008 24.8047 20.5996 24.8047H44.0078C49.0547 24.8047 52.4676 21.1516 52.4678 16.0566V10.9131H52.708C60.3024 10.9131 64.3397 14.9988 64.3398 23.1699V79.7451C64.3398 87.9643 60.3025 92.0019 52.2275 92.002H12.3799C4.30473 92.002 0.31549 87.9644 0.31543 79.7451V23.1699C0.315531 14.9987 4.3048 10.9131 11.9473 10.9131H12.1875ZM15.3604 73.6406C13.8223 73.6406 12.6202 74.8421 12.6201 76.332C12.6201 77.8221 13.8703 79.0723 15.3604 79.0723H34.7305C36.2205 79.0723 37.4707 77.8221 37.4707 76.332C37.4706 74.8421 36.2685 73.6406 34.7305 73.6406H15.3604ZM15.3604 59.1719C13.8222 59.1719 12.6201 60.3743 12.6201 61.8643C12.6202 63.4023 13.8223 64.6035 15.3604 64.6035H49.2949C50.833 64.6035 52.0351 63.4023 52.0352 61.8643C52.0352 60.3743 50.8331 59.1719 49.2949 59.1719H15.3604ZM48.4775 32.3516C46.555 32.3518 44.4883 33.6974 44.4883 36.5332L33.9141 44.1758C33.3853 43.9354 32.7597 43.791 32.1348 43.791C31.1737 43.7911 30.3564 44.1275 29.6836 44.6562L20.1182 39.8496C19.9739 37.6867 18.2919 36.0518 16.1289 36.0518C13.9179 36.0518 12.1396 37.8309 12.1396 40.042C12.1398 42.301 13.9179 44.079 16.1289 44.0791C16.946 44.0791 17.715 43.8389 18.3398 43.4062L28.1934 48.4531C28.4818 50.3276 30.0681 51.8181 32.1348 51.8184C34.0575 51.8184 36.125 50.4719 36.125 47.5879L46.6992 39.9932C47.2278 40.2335 47.8528 40.3779 48.4775 40.3779C50.7366 40.3779 52.4678 38.5517 52.4678 36.3887C52.4678 34.1296 50.7367 32.3516 48.4775 32.3516ZM32.3271 0.00195312C36.8934 0.00195312 40.5954 3.55928 40.8838 7.98145H44.0078C46.363 7.98145 47.8046 9.47112 47.8047 12.0186V16.0566C47.8046 18.604 46.363 20.0937 44.0078 20.0938H20.5996C18.2444 20.0938 16.8497 18.604 16.8496 16.0566V12.0186C16.8497 9.47111 18.2444 7.98145 20.5996 7.98145H23.7236C24.0601 3.55942 27.761 0.00218099 32.3271 0.00195312ZM32.3271 5.09668C30.5489 5.09692 29.0587 6.53918 29.0586 8.31738C29.0586 10.0957 30.5488 11.5857 32.3271 11.5859C34.1056 11.5859 35.5479 10.0958 35.5479 8.31738C35.5478 6.53903 34.1055 5.09668 32.3271 5.09668Z" fill="url(#paint0_linear_176_3736)"/>
<defs>
<linearGradient id="paint0_linear_176_3736" x1="32.3276" y1="0.00195312" x2="32.3276" y2="92.002" gradientUnits="userSpaceOnUse">
<stop stop-color="#FF5EA3"/>
<stop offset="1" stop-color="#FF4741"/>
</linearGradient>
</defs>
</g>
<g id="Ultralight-S" transform="matrix(1 0 0 1 515.649 696) translate(-2 -81.25)">
 <path d="M14.1484 8.88721V13.2056C14.1484 16.4884 16.5104 18.7269 19.833 18.7271H43.5088C46.835 18.7269 49.1963 16.4884 49.1963 13.2056V8.88721H53.0615C59.8119 8.88729 63.3457 12.4714 63.3457 19.2173V81.9214C63.3457 88.6708 59.812 92.2044 53.0264 92.2046H10.3164C3.57745 92.2046 0 88.6709 0 81.9214V19.2173C0 12.4713 3.57704 8.88721 10.2842 8.88721H14.1484ZM12.8809 73.9673C12.2518 73.9673 11.7412 74.4306 11.7412 75.0562C11.7413 75.6816 12.2554 76.1489 12.8809 76.1489H34.3828C35.0082 76.1488 35.4755 75.6815 35.4756 75.0562C35.4756 74.4307 35.0117 73.9674 34.3828 73.9673H12.8809ZM12.8809 58.4077C12.2519 58.4077 11.7414 58.8712 11.7412 59.4966C11.7412 60.0787 12.2518 60.5894 12.8809 60.5894H50.5117C51.0939 60.5894 51.6045 60.0787 51.6045 59.4966C51.6043 58.8712 51.0938 58.4077 50.5117 58.4077H12.8809ZM48.7158 30.0249C46.792 30.025 45.5146 31.7656 45.9365 33.5688L33.3848 43.7476C32.8768 43.2139 32.1735 42.9224 31.377 42.9224C30.5089 42.9224 29.7451 43.2757 29.2266 43.8774L17.499 37.9409C17.5352 35.765 15.9576 34.8472 14.626 34.8472C13.0092 34.8472 11.7529 36.1513 11.7529 37.7212C11.7531 39.3413 13.0093 40.645 14.626 40.645C15.3896 40.645 16.1032 40.3452 16.6182 39.8442L28.5068 45.8452C28.5281 47.4372 29.7709 48.7192 31.377 48.7192C32.8786 48.7192 34.2967 47.5416 34.25 45.6411L47.084 35.2778C47.545 35.577 48.107 35.7749 48.7158 35.7749C50.3361 35.7749 51.6357 34.5152 51.6357 32.9019C51.6357 31.2816 50.3361 30.0249 48.7158 30.0249ZM31.6729 0.203613C35.386 0.203659 38.3792 3.23338 38.4004 6.98291H43.5088C45.1358 6.98299 46.0858 7.8428 46.0859 9.39014V13.2056C46.0859 14.7062 45.136 15.6137 43.5088 15.6138H19.833C18.2528 15.6136 17.2588 14.7061 17.2588 13.2056V9.39014C17.259 7.84284 18.2529 6.98304 19.833 6.98291H24.9414C24.9661 3.23335 28.0065 0.203613 31.6729 0.203613ZM31.6729 3.25244C29.6188 3.25244 28.0079 4.8595 28.0078 6.96045C28.0078 8.96767 29.6187 10.6255 31.6729 10.6255C33.7268 10.6254 35.334 8.96765 35.334 6.96045C35.3339 4.85953 33.7268 3.25248 31.6729 3.25244Z" fill="url(#paint0_linear_176_3732)"/>
<defs>
<linearGradient id="paint0_linear_176_3732" x1="31.6729" y1="0.203613" x2="31.6729" y2="92.2046" gradientUnits="userSpaceOnUse">
<stop stop-color="#FF5EA3"/>
<stop offset="1" stop-color="#FF4741"/>
</linearGradient>
</defs>
</g>
</g>
</svg>