<svg width="64" height="64" viewBox="0 0 64 64" fill="none" xmlns="http://www.w3.org/2000/svg">
<g id="LogoAlt" clip-path="url(#clip0_217_7729)">
<path id="Symbol" d="M30.251 0.968765C31 0.500016 32.7344 0.383389 33.749 0.968765L59.749 15.9688C61.1212 16.7605 61.7906 18.375 61.3809 19.9053C60.9711 21.4357 59.5843 22.5 58 22.5H55V52H57C58.1046 52 59 52.8955 59 54V57H60.5C62.433 57 64 58.567 64 60.5C64 62.433 62.433 64 60.5 64H3.5C1.567 64 0 62.433 0 60.5C8.24657e-06 58.567 1.56701 57 3.5 57H5V54C5.00001 52.8955 5.89544 52 7 52H9V22.5H6C4.41567 22.5 3.02895 21.4357 2.61914 19.9053C2.20938 18.375 2.87878 16.7605 4.25098 15.9688L30.251 0.968765ZM37.2549 24C34.7223 24 33.0059 25.3847 32 27.2901C30.9941 25.3847 29.2658 24 26.7451 24C22.7216 24.0003 19.124 27.302 19.124 32.4024C19.124 37.5266 23.4439 42.6742 29.7988 46.9346C30.6272 47.4791 31.4438 48 32 48C32.5444 48 33.3728 47.4791 34.2012 46.9346C40.5561 42.6742 44.876 37.5266 44.876 32.4024C44.876 27.302 41.2784 24.0003 37.2549 24Z" fill="url(#paint0_linear_217_7729)"/>
</g>
<defs>
<linearGradient id="paint0_linear_217_7729" x1="32" y1="0.572266" x2="32" y2="64" gradientUnits="userSpaceOnUse">
<stop stop-color="#FF5EA3"/>
<stop offset="1" stop-color="#FF4741"/>
</linearGradient>
<clipPath id="clip0_217_7729">
<rect width="64" height="64" fill="white"/>
</clipPath>
</defs>
</svg>
