<svg width="64" height="64" viewBox="0 0 64 64" fill="none" xmlns="http://www.w3.org/2000/svg">
<g id="Logo" clip-path="url(#clip0_217_7737)">
<path id="Symbol" d="M60.5 56.9999C62.433 56.9999 64 58.5669 64 60.4999C63.9999 62.4328 62.4329 63.9999 60.5 63.9999H3.5C1.56707 63.9999 0.0001072 62.4328 0 60.4999C0 58.5669 1.567 56.9999 3.5 56.9999H60.5ZM30.457 0.858342C31.4992 0.346353 32.7344 0.383407 33.749 0.968693L59.749 15.9687L59.9023 16.0624C61.4573 17.0678 61.967 19.127 61.0312 20.749C60.0954 22.3706 58.0577 22.9607 56.4092 22.1181L56.251 22.0312L55 21.3085V49.9999H57C58.1046 49.9999 59 50.8954 59 51.9999V54.9999H5V51.9999C5 50.8954 5.89543 49.9999 7 49.9999H9V21.3085L7.74902 22.0312C6.07483 22.9969 3.93475 22.423 2.96875 20.749C2.00287 19.0748 2.57697 16.9348 4.25098 15.9687L30.251 0.968693L30.457 0.858342ZM33.7412 9.04487C32.728 8.46372 31.4966 8.42769 30.457 8.93842L30.2568 9.04487L15 17.8466V49.9999H49V17.8476L33.7412 9.04487ZM36.5977 21.9999C40.1183 22 43.2665 24.8887 43.2666 29.3515C43.2666 33.8352 39.4864 38.3395 33.9258 42.0673C33.2009 42.5437 32.4763 42.9999 32 42.9999C31.5133 42.9999 30.7991 42.5437 30.0742 42.0673C24.5136 38.3395 20.7334 33.8352 20.7334 29.3515C20.7335 24.8887 23.8817 22 27.4023 21.9999C29.608 21.9999 31.1198 23.2117 32 24.8788C32.8802 23.2117 34.3817 21.9999 36.5977 21.9999Z" fill="url(#paint0_linear_217_7737)"/>
</g>
<defs>
<linearGradient id="paint0_linear_217_7737" x1="32" y1="0.500183" x2="32" y2="64" gradientUnits="userSpaceOnUse">
<stop stop-color="#FF5EA3"/>
<stop offset="1" stop-color="#FF4741"/>
</linearGradient>
<clipPath id="clip0_217_7737">
<rect width="64" height="64" fill="white"/>
</clipPath>
</defs>
</svg>
